<svg xmlns="http://www.w3.org/2000/svg" xmlns:xlink="http://www.w3.org/1999/xlink" width="36.669" height="47.395" viewBox="0 0 9.7020017 12.539998"><defs><linearGradient id="b"><stop offset="0" stop-color="#ffc7a3"/><stop offset=".383" stop-color="#ffb07b"/><stop offset=".806" stop-color="#ffa467"/><stop offset="1" stop-color="#f95"/></linearGradient><linearGradient id="a"><stop offset="0"/><stop offset="1" stop-color="#ff7b23"/></linearGradient><linearGradient xlink:href="#a" id="c" x1="527.817" y1="531.346" x2="530.032" y2="537.033" gradientUnits="userSpaceOnUse" gradientTransform="matrix(0 -.26458 .34139 0 -176.781 144.413)"/><linearGradient xlink:href="#b" id="d" x1="526.078" y1="517.348" x2="531.5" y2="533.461" gradientUnits="userSpaceOnUse" gradientTransform="matrix(-.0257 -.31645 .34135 -.00046 -163.079 172.154)"/></defs><path d="M-42.208 71.073V-.021h51.9v71.094z" fill="none"/><path d="M-.299 6.829a8.97 4.905 30.182 0 1 6.76 2.608 8.97 4.905 30.182 0 1 3.236 3.1h.009L3.678 1.145l-.005.005a2.445 4.878 48.676 0 1-1.882 4.11 2.445 4.878 48.676 0 1-2.09 1.57z" opacity=".412"/><path d="M2.156 3.836zm.329-.295zm.303-.305zm.267-.306zm.233-.307zM3.608 0c.148.357.209.423.282.648l.07.106 5 10.414-.008-.001c.312.464.56.925.742 1.372V-.021zm-.119 2.315zm.17-.316l.01-.02zm.122-.29l.01-.024zm.134-.558z" fill="url(#c)"/><path d="M.002 5.44c2.071.441 4.45 1.716 6.516 3.494 1.282 1.107 2.38 2.352 3.176 3.605l.008.001L3.605 0h.005c.4 1.136-.357 2.72-1.667 4.04A7.268 7.268 0 0 1 0 5.44z" fill="url(#d)"/></svg>