<svg xmlns="http://www.w3.org/2000/svg" xmlns:xlink="http://www.w3.org/1999/xlink" width="196.21" height="268.703" viewBox="0 0 51.913902 71.094322"><defs><linearGradient id="b"><stop offset="0" stop-color="#ffc7a3"/><stop offset=".383" stop-color="#ffb07b"/><stop offset=".806" stop-color="#ffa467"/><stop offset="1" stop-color="#f95"/></linearGradient><linearGradient id="a"><stop offset="0"/><stop offset="1" stop-color="#ff7b23"/></linearGradient><linearGradient xlink:href="#a" id="c" x1="527.817" y1="531.346" x2="530.032" y2="537.033" gradientUnits="userSpaceOnUse" gradientTransform="matrix(0 -.26458 .34139 0 -45.799 233.296)"/><linearGradient xlink:href="#b" id="d" x1="526.078" y1="517.348" x2="531.5" y2="533.461" gradientUnits="userSpaceOnUse" gradientTransform="matrix(-.0257 -.31645 .34135 -.00046 -32.097 261.037)"/></defs><path fill="none" d="M0 71.094V0h51.9v71.094z"/><path d="M41.909 6.85a8.97 4.905 30.182 0 1 6.76 2.608 8.97 4.905 30.182 0 1 3.236 3.1h.009L45.886 1.166l-.005.005a2.445 4.878 48.676 0 1-1.882 4.11 2.445 4.878 48.676 0 1-2.09 1.57z" opacity=".412"/><path d="M133.138 92.719zm.329-.295zm.303-.305zm.267-.306zm.233-.307zm.32-2.623c.148.357.209.423.282.648l.07.106 5 10.414-.008-.001c.312.464.56.925.742 1.372v-12.56zm-.119 2.315zm.17-.316l.01-.02-.01.02zm.122-.29l.01-.024-.01.024zm.134-.558z" fill="url(#c)" transform="translate(-88.774 -88.862)"/><path d="M130.984 94.323c2.071.441 4.45 1.716 6.516 3.494 1.282 1.107 2.38 2.352 3.176 3.605l.008.001-6.097-12.54h.005c.4 1.136-.357 2.72-1.667 4.04a7.268 7.268 0 0 1-1.943 1.4z" fill="url(#d)" transform="translate(-88.774 -88.862)"/></svg>