<?xml version="1.0" encoding="UTF-8" standalone="no"?>
<!-- Created with Inkscape (http://www.inkscape.org/) -->

<svg
   xmlns:dc="http://purl.org/dc/elements/1.1/"
   xmlns:cc="http://creativecommons.org/ns#"
   xmlns:rdf="http://www.w3.org/1999/02/22-rdf-syntax-ns#"
   xmlns:svg="http://www.w3.org/2000/svg"
   xmlns="http://www.w3.org/2000/svg"
   xmlns:xlink="http://www.w3.org/1999/xlink"
   xmlns:sodipodi="http://sodipodi.sourceforge.net/DTD/sodipodi-0.dtd"
   xmlns:inkscape="http://www.inkscape.org/namespaces/inkscape"
   width="51.913902mm"
   height="71.094322mm"
   viewBox="0 0 51.913902 71.094322"
   version="1.1"
   id="svg8"
   sodipodi:docname="page-curl.svg"
   inkscape:version="0.92.1 unknown">
  <defs
     id="defs2">
    <linearGradient
       inkscape:collect="always"
       id="linearGradient7423">
      <stop
         style="stop-color:#ffc7a3;stop-opacity:1"
         offset="0"
         id="stop7419" />
      <stop
         id="stop7429"
         offset="0.38329899"
         style="stop-color:#ffb07b;stop-opacity:1" />
      <stop
         id="stop7427"
         offset="0.80597419"
         style="stop-color:#ffa467;stop-opacity:1" />
      <stop
         style="stop-color:#ff9955;stop-opacity:1"
         offset="1"
         id="stop7421" />
    </linearGradient>
    <linearGradient
       inkscape:collect="always"
       id="linearGradient7415">
      <stop
         style="stop-color:#000000;stop-opacity:1;"
         offset="0"
         id="stop7411" />
      <stop
         style="stop-color:#ff7b23;stop-opacity:1"
         offset="1"
         id="stop7413" />
    </linearGradient>
    <linearGradient
       inkscape:collect="always"
       xlink:href="#linearGradient7415"
       id="linearGradient7417"
       x1="527.81689"
       y1="531.34625"
       x2="530.03235"
       y2="537.03345"
       gradientUnits="userSpaceOnUse"
       gradientTransform="matrix(0,-0.26458333,0.34138928,0,-45.799037,233.29576)" />
    <linearGradient
       inkscape:collect="always"
       xlink:href="#linearGradient7423"
       id="linearGradient7425"
       x1="526.07812"
       y1="517.34766"
       x2="531.49994"
       y2="533.461"
       gradientUnits="userSpaceOnUse"
       gradientTransform="matrix(-0.02569412,-0.31645005,0.34135247,-4.5691297e-4,-32.097208,261.03725)" />
  </defs>
  <sodipodi:namedview
     id="base"
     pagecolor="#ffffff"
     bordercolor="#666666"
     borderopacity="1.0"
     inkscape:pageopacity="0.0"
     inkscape:pageshadow="2"
     inkscape:zoom="1.6087866"
     inkscape:cx="176.76442"
     inkscape:cy="133.92437"
     inkscape:document-units="mm"
     inkscape:current-layer="layer1"
     showgrid="false"
     inkscape:object-paths="false"
     showguides="false"
     inkscape:object-nodes="true"
     inkscape:snap-global="true"
     inkscape:snap-bbox="true"
     inkscape:snap-others="false"
     inkscape:snap-nodes="false"
     inkscape:window-width="1920"
     inkscape:window-height="1027"
     inkscape:window-x="0"
     inkscape:window-y="27"
     inkscape:window-maximized="1"
     fit-margin-top="0"
     fit-margin-left="0"
     fit-margin-right="0"
     fit-margin-bottom="0" />
  <metadata
     id="metadata5">
    <rdf:RDF>
      <cc:Work
         rdf:about="">
        <dc:format>image/svg+xml</dc:format>
        <dc:type
           rdf:resource="http://purl.org/dc/dcmitype/StillImage" />
        <dc:title></dc:title>
      </cc:Work>
    </rdf:RDF>
  </metadata>
  <g
     inkscape:label="Layer 1"
     inkscape:groupmode="layer"
     id="layer1"
     transform="translate(-88.774338,-88.862038)">
    <g
       id="g7568">
      <rect
         transform="rotate(-90)"
         y="88.774338"
         x="-159.95636"
         height="51.901169"
         width="71.094322"
         id="rect7385"
         style="opacity:1;fill:none;fill-opacity:1;stroke:none;stroke-width:1.13590944;stroke-linecap:round;stroke-linejoin:round;stroke-miterlimit:4;stroke-dasharray:none;stroke-opacity:1" />
      <path
         inkscape:transform-center-y="-5.5737072"
         inkscape:transform-center-x="4.9330041"
         inkscape:connector-curvature="0"
         style="opacity:0.41199999;fill:#000000;fill-opacity:1;stroke:none;stroke-width:0.06241104;stroke-linecap:butt;stroke-linejoin:miter;stroke-miterlimit:4;stroke-dasharray:none;stroke-opacity:1"
         d="m 130.68337,95.712411 a 8.9690761,4.9049381 30.181988 0 1 6.75991,2.607706 8.9690761,4.9049381 30.181988 0 1 3.23596,3.099933 l 0.009,2.8e-4 -6.02795,-11.392198 -0.005,0.0054 a 2.4450866,4.8778205 48.676356 0 1 -1.88165,4.108925 2.4450866,4.8778205 48.676356 0 1 -2.0901,1.570717 z"
         id="path7431" />
      <path
         sodipodi:nodetypes="ccccccccccccccccccccccccccccccccccc"
         style="opacity:1;fill:url(#linearGradient7417);fill-opacity:1;stroke:none;stroke-width:1.13590944;stroke-linecap:round;stroke-linejoin:round;stroke-miterlimit:4;stroke-dasharray:none;stroke-opacity:1"
         d="m 133.13829,92.718814 c 0.0526,-0.0445 0.10444,-0.08947 0.15536,-0.134877 -0.0509,0.0454 -0.10272,0.09037 -0.15536,0.134877 z m 0.32872,-0.294556 c 0.0407,-0.03869 0.0807,-0.07763 0.12002,-0.11679 -0.0393,0.03916 -0.0793,0.0781 -0.12002,0.11679 z m 0.30271,-0.305408 c 0.0282,-0.03022 0.056,-0.06054 0.0833,-0.09095 -0.0273,0.03041 -0.0551,0.06073 -0.0833,0.09095 z m 0.26738,-0.305925 c 0.0212,-0.02615 0.0421,-0.05234 0.0627,-0.07855 -0.0205,0.02621 -0.0414,0.0524 -0.0627,0.07855 z m 0.23337,-0.306959 c 0.0163,-0.02308 0.0323,-0.04617 0.048,-0.06925 -0.0157,0.02308 -0.0317,0.04617 -0.048,0.06925 z m 0.32005,-2.623206 c 0.14763,0.357635 0.2084,0.423704 0.28139,0.64865 l 0.0704,0.105424 5.00009,10.413846 -0.008,-0.001 c 0.31152,0.46478 0.56044,0.92557 0.74146,1.37252 V 88.862168 Z m -0.11935,2.315215 c 0.0106,-0.01793 0.0211,-0.03584 0.0313,-0.05374 -0.0102,0.0179 -0.0207,0.03581 -0.0313,0.05374 z m 0.17002,-0.316259 c 0.003,-0.0067 0.006,-0.01345 0.009,-0.02016 -0.003,0.0067 -0.006,0.01344 -0.009,0.02016 z m 0.12202,-0.289906 c 0.003,-0.0079 0.006,-0.01585 0.009,-0.02376 -0.003,0.0079 -0.006,0.01583 -0.009,0.02376 z m 0.13336,-0.557589 c 3.6e-4,-0.0052 6.9e-4,-0.01034 0.001,-0.0155 -3.1e-4,0.0052 -6.4e-4,0.01032 -0.001,0.0155 z"
         id="path7409"
         inkscape:connector-curvature="0" />
      <path
         sodipodi:nodetypes="ccccccccc"
         inkscape:transform-center-y="-6.2640821"
         inkscape:transform-center-x="4.8463326"
         id="path7399"
         d="m 130.98358,94.323404 c 2.07165,0.440566 4.44962,1.715403 6.51669,3.493621 1.28185,1.106535 2.37915,2.352125 3.17585,3.605045 l 0.008,10e-4 -6.09713,-12.540373 0.005,0.0012 c 0.40083,1.13545 -0.35649,2.719893 -1.66688,4.038343 -0.5826,0.583347 -1.25471,1.068003 -1.94262,1.400821 z"
         style="fill:url(#linearGradient7425);fill-opacity:1;stroke:none;stroke-width:0.06211339;stroke-linecap:butt;stroke-linejoin:miter;stroke-miterlimit:4;stroke-dasharray:none;stroke-opacity:1"
         inkscape:connector-curvature="0" />
    </g>
  </g>
</svg>
