<?xml version="1.0" encoding="UTF-8" standalone="no"?>
<svg
   xmlns:dc="http://purl.org/dc/elements/1.1/"
   xmlns:cc="http://creativecommons.org/ns#"
   xmlns:rdf="http://www.w3.org/1999/02/22-rdf-syntax-ns#"
   xmlns:svg="http://www.w3.org/2000/svg"
   xmlns="http://www.w3.org/2000/svg"
   xmlns:xlink="http://www.w3.org/1999/xlink"
   xmlns:sodipodi="http://sodipodi.sourceforge.net/DTD/sodipodi-0.dtd"
   xmlns:inkscape="http://www.inkscape.org/namespaces/inkscape"
   width="36.66898"
   height="47.395279"
   viewBox="0 0 9.7020017 12.539998"
   version="1.1"
   id="svg28"
   sodipodi:docname="page-curl.svg"
   inkscape:version="0.92.1 unknown">
  <metadata
     id="metadata32">
    <rdf:RDF>
      <cc:Work
         rdf:about="">
        <dc:format>image/svg+xml</dc:format>
        <dc:type
           rdf:resource="http://purl.org/dc/dcmitype/StillImage" />
        <dc:title></dc:title>
      </cc:Work>
    </rdf:RDF>
  </metadata>
  <sodipodi:namedview
     pagecolor="#ffffff"
     bordercolor="#666666"
     borderopacity="1"
     objecttolerance="10"
     gridtolerance="10"
     guidetolerance="10"
     inkscape:pageopacity="0"
     inkscape:pageshadow="2"
     inkscape:window-width="1920"
     inkscape:window-height="1027"
     id="namedview30"
     showgrid="false"
     fit-margin-top="0"
     fit-margin-left="0"
     fit-margin-right="0"
     fit-margin-bottom="0"
     inkscape:zoom="2.6383102"
     inkscape:cx="-161.48535"
     inkscape:cy="-11.070756"
     inkscape:window-x="0"
     inkscape:window-y="27"
     inkscape:window-maximized="1"
     inkscape:current-layer="svg28" />
  <defs
     id="defs18">
    <linearGradient
       id="b">
      <stop
         offset="0"
         stop-color="#ffc7a3"
         id="stop2" />
      <stop
         offset=".383"
         stop-color="#ffb07b"
         id="stop4" />
      <stop
         offset=".806"
         stop-color="#ffa467"
         id="stop6" />
      <stop
         offset="1"
         stop-color="#f95"
         id="stop8" />
    </linearGradient>
    <linearGradient
       id="a">
      <stop
         offset="0"
         id="stop11" />
      <stop
         offset="1"
         stop-color="#ff7b23"
         id="stop13" />
    </linearGradient>
    <linearGradient
       xlink:href="#a"
       id="c"
       x1="527.81702"
       y1="531.34601"
       x2="530.03198"
       y2="537.03302"
       gradientUnits="userSpaceOnUse"
       gradientTransform="matrix(0,-0.26458,0.34139,0,-176.781,144.413)" />
    <linearGradient
       xlink:href="#b"
       id="d"
       x1="526.078"
       y1="517.34802"
       x2="531.5"
       y2="533.461"
       gradientUnits="userSpaceOnUse"
       gradientTransform="matrix(-0.0257,-0.31645,0.34135,-4.6e-4,-163.079,172.154)" />
  </defs>
  <path
     d="M -42.208,71.073 V -0.021 h 51.9 v 71.094 z"
     id="path20"
     inkscape:connector-curvature="0"
     style="fill:none" />
  <path
     d="m -0.299,6.829 a 8.97,4.905 30.182 0 1 6.76,2.608 8.97,4.905 30.182 0 1 3.236,3.1 H 9.706 L 3.678,1.145 3.673,1.15 a 2.445,4.878 48.676 0 1 -1.882,4.11 2.445,4.878 48.676 0 1 -2.09,1.57 z"
     id="path22"
     inkscape:connector-curvature="0"
     style="opacity:0.41199999" />
  <path
     d="M 2.156,3.836 Z M 2.485,3.541 Z M 2.788,3.236 Z M 3.055,2.93 Z M 3.288,2.623 Z M 3.608,0 C 3.756,0.357 3.817,0.423 3.89,0.648 l 0.07,0.106 5,10.414 -0.008,-10e-4 c 0.312,0.464 0.56,0.925 0.742,1.372 V -0.021 Z M 3.489,2.315 Z m 0.17,-0.316 0.01,-0.02 z M 3.781,1.709 3.791,1.685 Z M 3.915,1.151 Z"
     id="path24"
     inkscape:connector-curvature="0"
     style="fill:url(#c)" />
  <path
     d="m 0.002,5.44 c 2.071,0.441 4.45,1.716 6.516,3.494 1.282,1.107 2.38,2.352 3.176,3.605 L 9.702,12.54 3.605,0 H 3.61 C 4.01,1.136 3.253,2.72 1.943,4.04 A 7.268,7.268 0 0 1 0,5.44 Z"
     id="path26"
     inkscape:connector-curvature="0"
     style="fill:url(#d)" />
</svg>
