<?xml version="1.0" encoding="UTF-8" standalone="no"?>
<svg
   xmlns:dc="http://purl.org/dc/elements/1.1/"
   xmlns:cc="http://creativecommons.org/ns#"
   xmlns:rdf="http://www.w3.org/1999/02/22-rdf-syntax-ns#"
   xmlns:svg="http://www.w3.org/2000/svg"
   xmlns="http://www.w3.org/2000/svg"
   height="64"
   width="64"
   xml:space="preserve"
   enable-background="new 0 0 105.3 119.4"
   viewBox="0 0 63.999998 63.999999"
   y="0px"
   x="0px"
   id="Layer_1"
   version="1.1"><metadata
     id="metadata25"><rdf:RDF><cc:Work
         rdf:about=""><dc:format>image/svg+xml</dc:format><dc:type
           rdf:resource="http://purl.org/dc/dcmitype/StillImage" /><dc:title></dc:title></cc:Work></rdf:RDF></metadata><defs
     id="defs23" /><g
     transform="scale(0.60778727,0.5360134)"
     id="g18"><polygon
       style="fill:#0a71b9"
       id="polygon2"
       points="0,0 105.3,0 95.9,107.6 52.6,119.4 9.4,107.6 " /><polygon
       style="fill:#28a7de"
       id="polygon4"
       points="88.1,100.6 52.6,110.8 52.6,8.9 96.5,8.9 " /><g
       id="g8"><polygon
         style="fill:#ebebeb"
         id="polygon6"
         points="37.9,79.2 37.1,68.6 24.1,68.6 26.1,89.9 53,97.2 79.8,89.9 86.1,22.2 79.8,22.2 19.7,22.2 21,35.3 71.2,35.3 69.6,48.5 22.2,48.5 23.4,61.4 68.9,61.4 67.2,79.2 52.4,82.8 " /></g><g
       id="g16"><polygon
         style="fill:none"
         id="polygon10"
         points="52.9,35.3 52.9,48.5 69.6,48.5 71.2,35.3 " /><polygon
         style="fill:none"
         id="polygon12"
         points="52.9,61.4 52.9,82.6 67.2,79.2 68.9,61.4 " /><polygon
         style="fill:#ffffff"
         id="polygon14"
         points="52.6,97.2 52.8,97.2 79.7,89.9 86.1,22.2 79.7,22.2 52.6,22.2 52.6,35.3 71.1,35.3 69.5,48.5 52.6,48.5 52.6,61.4 68.8,61.4 67.1,79.2 52.6,82.6 " /></g></g></svg>