<?xml version="1.0" encoding="UTF-8" standalone="no"?>
<svg
   xmlns:dc="http://purl.org/dc/elements/1.1/"
   xmlns:cc="http://creativecommons.org/ns#"
   xmlns:rdf="http://www.w3.org/1999/02/22-rdf-syntax-ns#"
   xmlns:svg="http://www.w3.org/2000/svg"
   xmlns="http://www.w3.org/2000/svg"
   xml:space="preserve"
   viewBox="0 0 64 64"
   height="64"
   width="64"
   y="0px"
   x="0px"
   id="Capa_1"
   version="1.1"><metadata
     id="metadata41"><rdf:RDF><cc:Work
         rdf:about=""><dc:format>image/svg+xml</dc:format><dc:type
           rdf:resource="http://purl.org/dc/dcmitype/StillImage" /><dc:title></dc:title></cc:Work></rdf:RDF></metadata><defs
     id="defs39" /><g
     transform="scale(0.125)"
     id="g4"><path
       id="path2"
       d="M 256,0 C 114.615,0 0,114.615 0,256 0,397.385 114.615,512 256,512 397.385,512 512,397.385 512,256 512,114.615 397.385,0 256,0 Z m 152.027,408.027 c -19.76,19.759 -42.756,35.267 -68.354,46.094 -6.502,2.75 -13.105,5.164 -19.801,7.246 V 423 c 0,-20.167 -6.916,-35 -20.75,-44.5 8.668,-0.833 16.625,-2 23.875,-3.5 7.25,-1.5 14.918,-3.667 23,-6.5 8.084,-2.833 15.334,-6.208 21.75,-10.125 6.418,-3.917 12.584,-9 18.5,-15.25 5.918,-6.25 10.875,-13.333 14.875,-21.25 4,-7.917 7.168,-17.417 9.5,-28.5 2.334,-11.083 3.5,-23.292 3.5,-36.625 0,-25.833 -8.416,-47.833 -25.25,-66 7.668,-20 6.834,-41.75 -2.5,-65.25 l -6.25,-0.75 c -4.332,-0.5 -12.125,1.333 -23.375,5.5 -11.25,4.167 -23.875,11 -37.875,20.5 -19.832,-5.5 -40.416,-8.25 -61.749,-8.25 -21.5,0 -42,2.75 -61.5,8.25 -8.833,-6 -17.208,-10.958 -25.125,-14.875 -7.917,-3.917 -14.25,-6.583 -19,-8 -4.75,-1.417 -9.167,-2.292 -13.25,-2.625 -4.083,-0.333 -6.708,-0.417 -7.875,-0.25 -1.167,0.167 -2,0.333 -2.5,0.5 -9.333,23.667 -10.167,45.417 -2.5,65.25 -16.833,18.167 -25.25,40.167 -25.25,66 0,13.333 1.167,25.542 3.5,36.625 2.333,11.083 5.5,20.583 9.5,28.5 4,7.917 8.958,15 14.875,21.25 5.917,6.25 12.083,11.333 18.5,15.25 6.417,3.917 13.667,7.292 21.75,10.125 8.083,2.833 15.75,5 23,6.5 7.25,1.5 15.208,2.667 23.875,3.5 -13.667,9.333 -20.5,24.167 -20.5,44.5 v 39.115 c -7.549,-2.247 -14.99,-4.902 -22.3,-7.994 C 146.726,443.294 123.729,427.786 103.97,408.027 84.212,388.269 68.703,365.271 57.877,339.673 46.679,313.195 41,285.043 41,256 41,226.957 46.679,198.805 57.879,172.325 68.706,146.728 84.214,123.731 103.972,103.972 123.73,84.213 146.728,68.705 172.325,57.879 198.805,46.679 226.957,41 256,41 c 29.043,0 57.195,5.679 83.676,16.879 25.598,10.827 48.594,26.335 68.354,46.093 19.758,19.758 35.266,42.756 46.092,68.353 C 465.32,198.805 471,226.957 471,256 c 0,29.043 -5.68,57.195 -16.879,83.675 -10.826,25.596 -26.336,48.595 -46.094,68.352 z" /></g><g
     transform="translate(0,-448)"
     id="g6" /><g
     transform="translate(0,-448)"
     id="g8" /><g
     transform="translate(0,-448)"
     id="g10" /><g
     transform="translate(0,-448)"
     id="g12" /><g
     transform="translate(0,-448)"
     id="g14" /><g
     transform="translate(0,-448)"
     id="g16" /><g
     transform="translate(0,-448)"
     id="g18" /><g
     transform="translate(0,-448)"
     id="g20" /><g
     transform="translate(0,-448)"
     id="g22" /><g
     transform="translate(0,-448)"
     id="g24" /><g
     transform="translate(0,-448)"
     id="g26" /><g
     transform="translate(0,-448)"
     id="g28" /><g
     transform="translate(0,-448)"
     id="g30" /><g
     transform="translate(0,-448)"
     id="g32" /><g
     transform="translate(0,-448)"
     id="g34" /></svg>