<?xml version="1.0" encoding="UTF-8" standalone="no"?>
<svg
   xmlns:dc="http://purl.org/dc/elements/1.1/"
   xmlns:cc="http://creativecommons.org/ns#"
   xmlns:rdf="http://www.w3.org/1999/02/22-rdf-syntax-ns#"
   xmlns:svg="http://www.w3.org/2000/svg"
   xmlns="http://www.w3.org/2000/svg"
   height="64"
   width="64"
   xml:space="preserve"
   enable-background="new 0 0 105.9 120.1"
   viewBox="0 0 63.999999 64.000001"
   y="0px"
   x="0px"
   id="Layer_1"
   version="1.1"><metadata
     id="metadata23"><rdf:RDF><cc:Work
         rdf:about=""><dc:format>image/svg+xml</dc:format><dc:type
           rdf:resource="http://purl.org/dc/dcmitype/StillImage" /><dc:title></dc:title></cc:Work></rdf:RDF></metadata><defs
     id="defs21" /><g
     transform="scale(0.60434372,0.53288926)"
     id="g16"><polygon
       style="fill:#e55025"
       id="polygon2"
       points="0,0 105.9,0 96.5,108.2 52.9,120.1 9.4,108.2 " /><polygon
       style="fill:#f26722"
       id="polygon4"
       points="53.3,9 53.3,111.2 88.4,101.2 96.8,9 " /><g
       id="g8"><polygon
         style="fill:#ffffff"
         id="polygon6"
         points="23.6,61.7 69.5,61.7 67.8,79.6 52.8,83.3 38.3,79.6 37.4,69 24.3,69 26.3,90.4 53.4,97.8 80.2,90.4 84.1,48.8 36,48.8 34.4,35.5 85.4,35.5 86.6,22.3 80.2,22.3 19.9,22.3 " /></g><g
       id="g14"><polygon
         style="fill:#e6e6e6"
         id="polygon10"
         points="53.3,97.8 53.3,83.2 52.8,83.3 38.3,79.6 37.4,69 24.3,69 26.3,90.4 " /><polygon
         style="fill:#ebebeb"
         id="polygon12"
         points="23.6,61.7 53.3,61.7 53.3,48.8 36,48.8 34.4,35.5 53.3,35.5 53.3,22.3 19.9,22.3 " /></g></g></svg>