<?xml version="1.0" encoding="UTF-8" standalone="no"?>
<svg
   xmlns:dc="http://purl.org/dc/elements/1.1/"
   xmlns:cc="http://creativecommons.org/ns#"
   xmlns:rdf="http://www.w3.org/1999/02/22-rdf-syntax-ns#"
   xmlns:svg="http://www.w3.org/2000/svg"
   xmlns="http://www.w3.org/2000/svg"
   viewBox="0 0 64 64"
   height="64"
   width="64"
   id="svg2"
   version="1.1">
  <metadata
     id="metadata8">
    <rdf:RDF>
      <cc:Work
         rdf:about="">
        <dc:format>image/svg+xml</dc:format>
        <dc:type
           rdf:resource="http://purl.org/dc/dcmitype/StillImage" />
        <dc:title></dc:title>
      </cc:Work>
    </rdf:RDF>
  </metadata>
  <defs
     id="defs6" />
  <style
     type="text/css"
     id="style7402"><![CDATA[
	.st0{fill:#535353;}
	.st1{opacity:0.5;}
	.st2{fill:#0868AC;}
]]></style>
  <g
     transform="matrix(0.86328861,0,0,0.89555325,-28.423679,-32.168273)"
     id="g7412">
    <g
       id="g7410">
      <path
         id="path7404"
         d="m 37.81,52.32 c -6.67,9.36 -5.99,21.65 -1.09,31.73 0.12,0.24 0.24,0.48 0.36,0.72 0.08,0.15 0.15,0.31 0.23,0.46 0.04,0.09 0.09,0.17 0.15,0.26 0.07,0.16 0.16,0.31 0.25,0.47 0.15,0.28 0.31,0.56 0.47,0.83 0.08,0.15 0.17,0.3 0.26,0.45 0.18,0.29 0.36,0.58 0.54,0.87 0.08,0.13 0.16,0.25 0.24,0.37 0.25,0.39 0.51,0.78 0.79,1.17 0,0.01 0.02,0.02 0.02,0.03 0.04,0.06 0.09,0.12 0.13,0.18 0.24,0.33 0.48,0.66 0.72,0.98 0.1,0.12 0.18,0.23 0.27,0.35 0.22,0.28 0.44,0.56 0.67,0.84 0.08,0.1 0.17,0.21 0.26,0.31 0.3,0.37 0.61,0.73 0.94,1.09 0,0.01 0.01,0.01 0.01,0.02 0.01,0.02 0.03,0.03 0.03,0.04 0.31,0.34 0.63,0.68 0.95,1.02 0.1,0.1 0.21,0.21 0.31,0.31 0.25,0.26 0.5,0.51 0.76,0.76 0.11,0.1 0.21,0.2 0.31,0.3 0.34,0.33 0.68,0.65 1.04,0.97 0.01,0.01 0.01,0.01 0.02,0.02 0.06,0.05 0.12,0.1 0.17,0.15 0.31,0.28 0.63,0.55 0.95,0.82 0.12,0.11 0.25,0.21 0.39,0.32 0.26,0.21 0.52,0.42 0.79,0.63 0.13,0.11 0.27,0.22 0.41,0.33 0.29,0.22 0.6,0.43 0.89,0.65 0.11,0.08 0.21,0.16 0.31,0.24 0.03,0.02 0.06,0.04 0.09,0.06 0.28,0.2 0.57,0.39 0.86,0.58 0.13,0.08 0.25,0.17 0.37,0.25 0.44,0.29 0.89,0.57 1.35,0.85 0.12,0.07 0.24,0.14 0.37,0.22 0.33,0.2 0.67,0.39 1.01,0.58 0.19,0.1 0.38,0.2 0.55,0.3 0.25,0.13 0.48,0.26 0.73,0.39 0.05,0.03 0.11,0.05 0.17,0.08 0.09,0.05 0.19,0.1 0.29,0.15 0.38,0.19 0.76,0.37 1.14,0.55 0.08,0.04 0.16,0.08 0.25,0.11 0.44,0.2 0.89,0.39 1.34,0.58 0.11,0.05 0.22,0.09 0.33,0.13 0.42,0.17 0.85,0.33 1.26,0.49 0.06,0.02 0.11,0.04 0.16,0.06 0.47,0.17 0.94,0.33 1.41,0.48 0.11,0.03 0.22,0.07 0.34,0.1 0.48,0.15 0.95,0.33 1.45,0.43 31.69,6.16 41.2,-18.61 41.2,-18.61 -7.86,10 -21.64,12.51 -34.63,9.4 C 69.91,97.07 69.43,96.91 68.95,96.76 68.83,96.72 68.71,96.68 68.59,96.65 68.13,96.5 67.66,96.34 67.2,96.18 67.14,96.16 67.07,96.14 67.01,96.11 66.6,95.96 66.19,95.8 65.78,95.64 65.66,95.59 65.56,95.55 65.44,95.5 64.99,95.32 64.55,95.13 64.12,94.93 64.02,94.89 63.94,94.85 63.85,94.81 63.47,94.63 63.1,94.46 62.73,94.27 62.62,94.22 62.51,94.17 62.4,94.11 62.11,93.96 61.82,93.8 61.53,93.65 c -0.19,-0.11 -0.38,-0.2 -0.57,-0.31 -0.35,-0.19 -0.69,-0.39 -1.04,-0.59 -0.11,-0.07 -0.23,-0.13 -0.34,-0.2 -0.46,-0.27 -0.91,-0.56 -1.36,-0.84 -0.12,-0.08 -0.24,-0.17 -0.36,-0.25 -0.32,-0.21 -0.64,-0.43 -0.96,-0.65 -0.11,-0.07 -0.21,-0.15 -0.3,-0.22 -0.31,-0.22 -0.61,-0.45 -0.91,-0.67 -0.14,-0.1 -0.27,-0.2 -0.4,-0.31 -0.28,-0.22 -0.55,-0.44 -0.81,-0.66 -0.12,-0.1 -0.25,-0.2 -0.37,-0.3 -0.34,-0.29 -0.68,-0.58 -1.02,-0.88 -0.03,-0.03 -0.07,-0.06 -0.11,-0.1 -0.36,-0.33 -0.71,-0.66 -1.07,-0.99 -0.1,-0.1 -0.2,-0.2 -0.3,-0.3 -0.26,-0.25 -0.52,-0.51 -0.76,-0.77 -0.11,-0.1 -0.21,-0.2 -0.31,-0.31 -0.31,-0.33 -0.63,-0.67 -0.94,-1.01 -0.02,-0.02 -0.03,-0.03 -0.04,-0.05 -0.33,-0.36 -0.64,-0.73 -0.95,-1.11 -0.09,-0.1 -0.17,-0.2 -0.26,-0.3 C 48.13,82.54 47.9,82.25 47.67,81.96 47.58,81.86 47.5,81.75 47.42,81.64 47.14,81.28 46.88,80.93 46.63,80.56 39.51,70.61 37.07,56.97 42.97,45.87"
         class="st2"
         style="fill:#0868ac" />
      <path
         id="path7406"
         d="m 58.29,44.6 c -4.83,6.78 -4.68,15.93 -1.06,23.2 0.61,1.22 1.29,2.4 2.06,3.53 0.7,1.03 1.47,2.25 2.42,3.08 0.34,0.38 0.68,0.75 1.04,1.12 0.1,0.09 0.18,0.18 0.28,0.28 0.35,0.35 0.71,0.69 1.08,1.03 0.02,0.01 0.03,0.03 0.04,0.04 0.01,0 0.01,0.01 0.01,0.01 0.4,0.37 0.83,0.72 1.25,1.07 0.1,0.07 0.2,0.15 0.29,0.23 0.43,0.33 0.87,0.67 1.32,0.98 0.01,0.01 0.03,0.02 0.04,0.03 0.2,0.14 0.4,0.28 0.6,0.41 0.1,0.06 0.19,0.13 0.29,0.19 0.32,0.21 0.65,0.42 0.98,0.61 0.05,0.03 0.09,0.06 0.14,0.08 0.29,0.17 0.58,0.33 0.86,0.5 0.1,0.06 0.21,0.11 0.31,0.16 0.2,0.11 0.4,0.22 0.6,0.32 0.03,0.02 0.06,0.03 0.09,0.04 0.42,0.21 0.84,0.42 1.26,0.61 0.09,0.04 0.19,0.08 0.28,0.12 0.34,0.15 0.69,0.29 1.04,0.43 0.15,0.06 0.3,0.12 0.44,0.17 0.31,0.12 0.63,0.23 0.96,0.34 0.14,0.05 0.28,0.1 0.43,0.14 0.45,0.15 0.9,0.33 1.38,0.42 24.47,4.34 30.34,-14.47 30.34,-14.47 -5.19,7.29 -15.1,10.68 -25.62,7.82 -0.46,-0.13 -0.92,-0.27 -1.38,-0.42 -0.14,-0.04 -0.28,-0.09 -0.42,-0.14 -0.32,-0.11 -0.65,-0.23 -0.96,-0.34 -0.15,-0.06 -0.29,-0.11 -0.43,-0.17 -0.35,-0.13 -0.7,-0.28 -1.04,-0.43 -0.09,-0.04 -0.19,-0.08 -0.28,-0.12 -0.43,-0.19 -0.86,-0.4 -1.27,-0.61 -0.22,-0.1 -0.43,-0.22 -0.65,-0.33 -0.12,-0.06 -0.24,-0.13 -0.36,-0.2 -0.28,-0.15 -0.54,-0.31 -0.81,-0.46 -0.06,-0.04 -0.13,-0.08 -0.19,-0.11 -0.33,-0.2 -0.66,-0.4 -0.98,-0.61 -0.09,-0.06 -0.19,-0.13 -0.29,-0.2 -0.22,-0.14 -0.43,-0.29 -0.63,-0.43 -0.45,-0.31 -0.89,-0.65 -1.31,-0.98 -0.1,-0.08 -0.2,-0.16 -0.3,-0.24 C 65.57,67.6 61.97,62.58 60.29,56.92 58.53,51.04 59,44.48 62.23,39.18"
         class="st2"
         style="fill:#0868ac" />
      <path
         id="path7408"
         d="m 75.1,38.8 c -2.8,4.12 -3.07,9.23 -1.13,13.78 2.05,4.83 6.24,8.62 11.14,10.42 0.2,0.07 0.4,0.14 0.61,0.21 0.09,0.03 0.18,0.06 0.26,0.09 0.29,0.09 0.58,0.2 0.88,0.25 13.54,2.62 17.21,-6.95 18.18,-8.35 -3.21,4.63 -8.62,5.74 -15.25,4.13 -0.52,-0.13 -1.1,-0.31 -1.6,-0.49 C 87.55,58.61 86.91,58.35 86.28,58.05 85.1,57.49 83.98,56.8 82.94,56.01 77,51.51 73.32,42.92 77.19,35.92"
         class="st2"
         style="fill:#0868ac" />
    </g>
  </g>
</svg>
