<?xml version="1.0" encoding="UTF-8" standalone="no"?>
<svg
   xmlns:dc="http://purl.org/dc/elements/1.1/"
   xmlns:cc="http://creativecommons.org/ns#"
   xmlns:rdf="http://www.w3.org/1999/02/22-rdf-syntax-ns#"
   xmlns:svg="http://www.w3.org/2000/svg"
   xmlns="http://www.w3.org/2000/svg"
   id="svg6"
   version="1.1"
   viewBox="0 0 16.651581 16.639972"
   height="63.999893"
   width="63.999989">
  <metadata
     id="metadata12">
    <rdf:RDF>
      <cc:Work
         rdf:about="">
        <dc:format>image/svg+xml</dc:format>
        <dc:type
           rdf:resource="http://purl.org/dc/dcmitype/StillImage" />
        <dc:title>PostCSS-logo</dc:title>
      </cc:Work>
    </rdf:RDF>
  </metadata>
  <defs
     id="defs10" />
  <title
     id="title2">PostCSS-logo</title>
  <path
     style="fill:#dd3a0a;fill-rule:evenodd;stroke-width:0.21366693"
     id="path4"
     d="M 16.618991,7.216579 C 16.607671,6.996886 16.601901,6.777408 16.579471,6.557715 16.539941,6.259165 16.500431,5.955058 16.433137,5.662277 16.382517,5.420145 16.298559,5.18934 16.213963,4.958322 16.10715,4.687981 16.000338,4.412083 15.865112,4.153068 15.645932,3.736337 15.359248,3.364484 15.094993,2.975962 14.920674,2.728061 14.69594,2.525464 14.527177,2.272221 14.431687,2.125402 14.29112,2.001665 14.150555,1.889041 13.92582,1.708671 13.689764,1.545398 13.453708,1.38768 A 6.9936703,6.996387 0 0 0 12.902554,1.038908 c -0.151674,-0.08463 -0.31467,-0.15216001 -0.472112,-0.22524801 -0.179873,-0.08463 -0.35419,-0.185926 -0.556495,-0.225462 -0.05063,-0.01132 -0.09549,-0.02821 -0.14612,-0.04488 -0.129455,-0.04531 -0.253144,-0.09617 -0.382389,-0.135491 -0.196962,-0.06197 -0.387944,-0.135065 -0.590461,-0.185927 -0.196108,-0.05022 -0.398624,-0.08398 -0.601141,-0.112197 -0.2247344,-0.03376 -0.4550234,-0.04488 -0.6801834,-0.06775 -0.14612,-0.0171 -0.292241,-0.03376 -0.432806,-0.0391 -0.213625,-0.01154 -0.432805,-0.01154 -0.646431,-0.0171 -0.106812,-0.0056 -0.219393,-0.0171 -0.326206,-0.01132 -0.162996,0.0058 -0.325992,0.02266 -0.489202,0.04488 -0.157229,0.0171 -0.31467,0.04531 -0.466344,0.06774 -0.185855,0.02265 -0.371068,0.03376 -0.556709,0.05642 -0.174104,0.02244 -0.35419,0.0562 -0.528295,0.08441 -0.06195,0.01132 -0.123902,0.03376 -0.185854,0.04488 -0.134584,0.02842 -0.275149,0.03954 -0.410162,0.08463 a 10.850037,10.854252 0 0 0 -0.71949,0.247902 c -0.219392,0.08975 -0.433018,0.185498 -0.640877,0.298122 C 3.8576516,1.021812 3.6551346,1.162432 3.4528326,1.297709 c -0.191195,0.129508 -0.38239,0.264571 -0.567817,0.410962 -0.179873,0.141047 -0.348209,0.29855 -0.511633,0.456268 -0.09014,0.08975 -0.16321,0.197039 -0.247806,0.298337 -0.140138,0.163486 -0.280704,0.321203 -0.415714,0.490033 -0.112368,0.141048 -0.213626,0.287225 -0.320439,0.433828 -0.191194,0.258587 -0.354191,0.534699 -0.50586497,0.810809 a 9.6387807,9.6425249 0 0 0 -0.174319,0.338088 c -0.08438,0.168829 -0.174319,0.332317 -0.252932,0.506488 a 2.1469358,2.1477698 0 0 0 -0.135011,0.377623 45.972198,45.990056 0 0 0 -0.230715,0.833463 c -0.06729,0.247475 -0.08417,0.506489 -0.0897200002,0.759947 -0.0056,0.225249 0.0170900002,0.444941 0.0393000002,0.67019 0.0058,0.05642 -0.02777,0.123951 0.03953,0.16883 -0.02264,0.06197 -0.0058,0.09617 0.02777,0.106854 -0.03909,0.06197 0.01709,0.101726 -0.0053,0.158144 -0.0058,0.01111 0.01709,0.03355 0.02777,0.05044 0,0.0171 -0.0053,0.03954 0,0.05642 0.006,0.05065 0.02841,0.101298 0.02841,0.157716 0,0.03932 0.03418,0.08441 0.04486,0.123952 0.006,0.0171 0,0.04488 -0.01068,0.0562 -0.03418,0.03933 -0.02841,0.0733 0.02222,0.09574 0.0282,0.07352 0.01709,0.107282 0.01132,0.141048 0.01111,0.05065 -0.0058,0.06754 0,0.07907 0.04486,0.08975 0.06195,0.191269 0.06751,0.292781 0,0.02223 0.01111,0.04488 0.02243,0.07309 0.0056,0 0,0.106854 0,0.106854 0.02777,-0.0171 0.05063,-0.02244 0.07861,-0.03376 0.01709,0.0733 0.03375,0.141048 0.05618,0.203023 0.02777,0.04488 0.02777,0.06732 0.01666,0.07266 0.02264,0.101725 0.03375,0.197466 0.07306,0.293208 0,-0.106855 -0.01112,-0.214136 -0.02777,-0.315434 0.0784,0.02821 0.145906,0.0562 0.190982,0.0562 0.0056,-0.0171 0.01111,-0.03933 0.01709,-0.05065 -0.03418,-0.03376 -0.06195,-0.08441 -0.09613,-0.118182 0.01154,0.04488 0,0.06197 0,0.07907 -0.02222,-0.01154 -0.05042,-0.02287 -0.0784,-0.03419 0.02243,-0.02778 0.04486,-0.0562 0.07861,-0.08976 0,-0.05086 -0.02777,-0.09617 -0.106812,-0.09039 0.03375,-0.01112 0.06751,-0.02778 0.106812,-0.03933 0.06195,-0.03376 -0.0056,-0.09575 -0.0056,-0.1746 0.0053,-0.09617 -0.05084,-0.191696 -0.06772,-0.292781 -0.0282,-0.158143 -0.02243,-0.394506 -0.0393,-0.552222 -0.03418,-0.02778 -0.06195,0.04488 -0.06772,0.05086 0.01709,0.135063 0.03375,0.270127 0.04486,0.405404 -0.03354,-0.112411 -0.05618,-0.236361 -0.08417,-0.371424 -0.0058,0.03933 -0.01154,0.0562 -0.01154,0.07907 -0.02777,0.02778 -0.0056,0.06154 0.01132,0.101083 -0.03952,-0.0171 -0.0846,-0.01132 -0.0846,-0.01132 v 0.157716 c -0.05618,-0.0562 -0.07306,-0.101297 -0.101258,-0.141047 -0.01111,-0.04488 -0.01709,-0.08975 -0.02777,-0.134636 0.01068,-0.02842 0,-0.04531 0,-0.06197 a 4.4141429,4.4158576 0 0 1 -0.01709,-0.135277 c 0.0056,-0.0058 -0.0056,-0.09018 -0.0056,-0.09018 0.04486,0.0056 0.07306,0.01132 0.101046,0.01132 -0.05618,-0.0733 -0.01709,-0.118394 0.0058,-0.163486 0.01112,-0.02244 0.05042,-0.02778 0.06195,-0.05065 0.04486,-0.08441 0.117921,-0.151733 0.117921,-0.259015 0,-0.05065 0.01709,-0.106854 0.02243,-0.157717 0.01154,-0.09574 0.02264,-0.191483 0.02841,-0.287224 0.01111,-0.123951 0,-0.247902 0.02777,-0.366082 0.04529,-0.197254 0.101472,-0.394293 0.16321,-0.591331 0.04486,-0.141048 0.0957,-0.276112 0.151674,-0.416733 0.0846,-0.219691 0.16320997,-0.439383 0.27002197,-0.647536 0.151674,-0.30432 0.326206,-0.597101 0.49497,-0.895438 0.106814,-0.185926 0.21918,-0.360526 0.337529,-0.540683 0.112153,-0.174599 0.224307,-0.354755 0.353976,-0.518243 a 4.5604763,4.5622478 0 0 1 0.596016,-0.63621 c 0.224734,-0.202595 0.43836,-0.410961 0.67997,-0.596887 a 6.8766034,6.8792747 0 0 1 1.000622,-0.64198 c 0.287112,-0.151733 0.584906,-0.270342 0.882913,-0.38296601 0.191195,-0.07266 0.399053,-0.106855 0.596016,-0.168829 0.224733,-0.07309 0.449681,-0.106855 0.685737,-0.112411 0.151674,-0.0058 0.298007,-0.02265 0.449682,-0.03954 0.135011,-0.01132 0.269809,-0.02265 0.416142,-0.03954 -0.01709,0.02244 -0.02264,0.03376 -0.0282,0.04488 -0.06195,0.09018 -0.129243,0.18037 -0.191194,0.270554 -0.05063,0.0733 -0.106813,0.15216001 -0.157442,0.22546201 -0.09014,0.118181 -0.185855,0.236363 -0.270023,0.360313 -0.129457,0.185926 -0.247806,0.377623 -0.382389,0.563335 -0.135012,0.180157 -0.281131,0.3492 -0.421698,0.523586 -0.185425,0.242346 -0.359744,0.490034 -0.545171,0.732379 -0.168764,0.230805 -0.348636,0.450497 -0.511634,0.681303 -0.146332,0.203022 -0.275576,0.416731 -0.416569,0.625311 -0.207643,0.309877 -0.415715,0.61377 -0.623786,0.923647 a 53.628108,53.64894 0 0 1 -0.494543,0.703957 c -0.01132,0.0171 -0.0282,0.02244 -0.04486,0.03376 -0.04486,0.07309 -0.04486,0.112624 -0.06195,0.14639 -0.04486,0.08441 -0.08971,0.16883 -0.140567,0.247902 -0.0282,0.04488 -0.06751,0.08441 -0.101258,0.129293 -0.0056,-0.06754 0.08973,-0.101297 0.04486,-0.185926 -0.02777,0.04531 -0.05618,0.08463 -0.08417,0.129721 l -0.06772,0.135064 c 0.02243,0.01667 0.06195,0.02778 0.02243,0.06197 -0.01709,0.02778 -0.03375,0.06197 -0.05063,0.08975 a 0.20080793,0.20088594 0 0 0 0.06195,-0.0562 c 0,0.06197 -0.03354,0.112624 -0.06195,0.163487 -0.02222,0.04488 -0.0784,0.07864 -0.117493,0.112624 0.0053,0.0053 0.04486,0.02223 0.05042,0.02778 0.05063,-0.0171 0.06729,-0.04488 0.07306,-0.02778 0.01709,-0.02287 0.03375,-0.03975 0.03931,-0.05663 0.02243,-0.0562 0.05618,-0.101298 0.112367,-0.12395 0.02264,-0.01112 0.03952,-0.02778 0.05618,-0.04488 0.168765,-0.174599 0.343297,-0.343643 0.494971,-0.529569 0.236269,-0.287011 0.449895,-0.585561 0.674629,-0.878342 0.09571,-0.123951 0.208071,-0.247901 0.30933,-0.366082 0.01666,0.129507 0.0056,0.253458 0,0.371853 -0.01709,0.208151 -0.0282,0.416731 -0.04486,0.63044 -0.0058,0.08463 0,0.168829 -0.0058,0.253457 0,0.02265 -0.01709,0.03954 -0.01709,0.06197 0,0.05642 0.01709,0.118181 0.01709,0.1746 -0.01709,0.208365 -0.03952,0.411175 -0.05618,0.619755 -0.0058,0.04488 0.01666,0.08975 0.02777,0.129293 -0.02777,0.304107 0.03418,0.625097 -0.01666,0.946088 0.03932,-0.06197 0.05063,-0.101726 0.05063,-0.141048 0.0056,-0.03376 0,-0.06754 0,-0.106854 v -0.05642 c 0.0056,-0.101511 0.0282,-0.208365 0.01709,-0.309877 -0.01154,-0.112624 -0.01154,-0.219478 0.01111,-0.326546 0.01112,-0.04488 -0.0058,-0.101299 0.02243,-0.157717 v 0.08441 c -0.0058,0.32099 0.0053,0.641979 -0.03952,0.963183 -0.0058,0.02778 0.01709,0.07865 -0.04486,0.07309 -0.05084,0.101298 0.01111,0.1746 -0.04486,0.230805 -0.01155,0.01132 0.01068,0.06197 0.01666,0.09574 -0.02264,0.06775 -0.02264,0.06775 0.01111,0.0733 0.0056,0.12395 0.01709,0.236574 0.02243,0.354755 0.08971,-0.213708 0.04486,-0.433827 0.08438,-0.653306 0.0056,0.09018 0.01132,0.18037 0.0056,0.276111 0,0.14639 -0.0053,0.287224 -0.01068,0.433828 0,0.02778 -0.0058,0.05599 -0.01153,0.0842 -0.01709,0.07907 -0.02243,0.157718 -0.05063,0.230805 -0.02264,0.05642 -0.01132,0.141048 -0.01132,0.208366 v 0.213709 c 0.02243,0.09617 -0.0058,0.146604 0.01111,0.203022 -0.01709,0.0562 -0.02264,0.07309 -0.01709,0.08975 l 0.01709,0.08463 c 0.112367,-0.01111 0.06195,0.0733 0.106812,0.118394 -0.03418,0.04488 -0.02264,0.06197 -0.02264,0.08441 0,0.05065 -0.0056,0.09574 -0.01132,0.14639 0,0.129508 -0.0053,0.259015 -0.0053,0.382966 0,0.0171 0.0056,0.03376 0.0056,0.05065 0,0.01111 -0.0053,0.157503 -0.0053,0.157503 0.01132,0.0171 0,0.03376 -0.01709,0.05065 -0.0053,0 -0.02222,-0.715283 -0.02222,-0.715283 h -0.08417 c -0.01111,0.338088 0.01709,0.642195 -0.04486,0.957414 -0.06751,0.0058 -0.08973,0.0171 -0.162998,0.0171 -0.174317,0 -0.348636,0 -0.522954,0.0056 -0.208071,0 -0.410161,0.0056 -0.618446,0.0056 -0.101044,0 -0.207857,0.01111 -0.309116,0.01111 -0.135011,0 -0.275576,-0.0171 -0.410161,-0.0171 -0.208284,0 -0.410588,0.0171 -0.618659,0.02265 -0.151674,0.0056 -0.303348,0.0056 -0.455022,0.01132 a 5.5029918,5.5051295 0 0 0 -0.303775,0.02265 c -0.04486,0.0056 -0.08438,0.02265 -0.140567,0.03954 -0.01709,0 -0.05618,-0.0056 -0.08971,0 -0.0564,0.01132 -0.106812,0.04488 -0.16321,0.05642 -0.08438,0.0171 -0.106813,0.03954 -0.0957,0.12395 v 0.0562 c -0.0056,0.01132 0.123903,-0.0171 0.123903,-0.0171 -0.01154,0 -0.01709,0.03419 -0.03418,0.06197 0.04529,-0.01667 0.07327,-0.02778 0.101472,-0.0391 0.08438,0.03932 0.15744097,0.0171 0.22494697,0.03376 0.21918,0.0562 0.443914,0.07907 0.668648,0.101298 0.146334,0.01132 0.286899,0.0171 0.433019,0.02266 0.20807,0.01111 0.416143,0.02244 0.623786,0.02244 0.174532,0 0.343297,-0.0171 0.517615,-0.0171 0.241396,0 0.483434,0.01154 0.725044,0.0171 0.05063,0 0.106813,-0.0056 0.162997,-0.0056 h 0.410161 c 0.365727,-0.01111 0.73124,-0.01667 1.09654,-0.02778 0.20807,-0.006 0.421696,-0.0171 0.629553,-0.02287 l 0.640876,-0.0171 c 0.247379,-0.0053 0.494757,-0.0053 0.736581,-0.01068 0.185427,0 0.3653,-0.006 0.551154,-0.01154 0.207644,-0.0058 0.421269,-0.02265 0.62934,-0.03419 a 6.8082434,6.8108881 0 0 0 0.337528,-0.02778 c 0.134585,-0.01154 0.275578,-0.02842 0.410162,-0.03419 0.202302,-0.01111 0.4101614,-0.01667 0.6131044,-0.02778 0.25272,-0.0171 0.505652,-0.03954 0.764138,-0.04531 0.236484,-0.01111 0.478094,-0.0056 0.714365,-0.01111 0.207857,-0.0058 0.415929,-0.0171 0.629553,-0.02265 l 0.354619,-0.0171 c 0,0 0.235843,-0.0053 0.353978,-0.01667 0.202302,-0.01132 0.404607,-0.03376 0.607123,-0.03932 0.12903,-0.0058 0.258486,0 0.387729,-0.0058 0.207858,-0.0053 0.421485,-0.01667 0.629556,-0.01667 0.07861,0 0.162995,0.01132 0.264254,0.0171 -0.04529,0.03933 -0.07327,0.06197 -0.106813,0.08975 0.02222,0.0058 0.04486,0.0171 0.06729,0.02842 a 0.15167407,0.15173299 0 0 1 -0.08971,0.02821 c -0.01154,0.02778 -0.02286,0.03933 -0.03418,0.09553 h 0.101257 c -0.03952,0 -0.07327,0.05086 -0.11258,0.08463 -0.04486,-0.01132 -0.08438,0 -0.106812,0.06197 0.0393,0.02244 0.03375,0.03933 0.0282,0.06197 -0.06751,0.02244 -0.118134,0.04488 -0.08971,0.118181 -0.02286,0.01132 -0.05084,0.02244 -0.07904,0.03933 -0.02777,0.04488 -0.07861,0.05642 -0.06751,0.118394 0.02243,0.0058 0.04486,0.0171 0.06195,0.02265 -0.02841,0.01132 -0.0564,0.02821 -0.0846,0.03954 -0.101258,0.06197 -0.05618,0.09019 -0.03375,0.118394 -0.01709,0.01132 -0.03375,0.02244 -0.05063,0.02821 0.01111,0.05065 0.02777,0.06197 0.03354,0.06197 -0.02243,0.0171 -0.05063,0.03933 -0.08417,0.06754 -0.01709,0.05065 -0.03952,0.07309 -0.06195,0.106854 -0.02243,0.03419 -0.03375,0.07907 -0.06195,0.112624 -0.117922,0.129507 -0.202303,0.281454 -0.353977,0.382538 -0.05618,0.03974 -0.106813,0.09039 -0.157442,0.141048 -0.101472,0.09575 -0.191408,0.203022 -0.298221,0.292781 a 6.4015005,6.4039872 0 0 1 -0.438692,0.332331 c -0.185215,0.129507 -0.370642,0.259015 -0.556281,0.382965 -0.101045,0.06754 -0.213625,0.118181 -0.320438,0.180157 -0.106813,0.06197 -0.207857,0.118394 -0.314671,0.18037 -0.06751,0.04488 -0.129456,0.106853 -0.202517,0.140619 -0.185427,0.07907 -0.382389,0.14639 -0.57337,0.219692 -0.185213,0.07907 -0.320438,0.146391 -0.46079,0.19704 -0.129244,0.04488 -0.264255,0.07907 -0.399053,0.106854 -0.04486,0.01154 -0.09571,0 -0.146333,0.0058 -0.09549,0.01667 -0.1909824,0.03933 -0.2866854,0.05065 -0.247379,0.03376 -0.494543,0.0562 -0.741922,0.08975 -0.146333,0.0171 -0.286684,0.04531 -0.433019,0.06197 -0.101044,0.0058 -0.207857,-0.0053 -0.309117,-0.0053 -0.07263,0 -0.151673,0.0171 -0.224732,0.0056 -0.117922,-0.0171 -0.236057,-0.04488 -0.354192,-0.06754 -0.02777,-0.0058 -0.06729,-0.0171 -0.08971,-0.0058 -0.04486,0.02265 -0.08438,-0.01111 -0.129458,0 -0.02777,0.0058 -0.05618,-0.0171 -0.08438,-0.0171 -0.02264,-0.0053 -0.05063,0.006 -0.07904,0 -0.06195,-0.01667 -0.117921,-0.03911 -0.185213,-0.03355 -0.06751,0.0058 -0.135012,-0.02778 -0.208071,-0.04488 -0.101472,-0.02265 -0.196963,-0.04488 -0.298221,-0.06775 a 0.49561106,0.49580358 0 0 1 -0.112367,-0.05044 c -0.14612,0 -0.241825,-0.0056 -0.331761,-0.03932 -0.07861,-0.02821 -0.151674,-0.06775 -0.236055,-0.05642 -0.02243,0.0056 -0.03931,-0.0056 -0.06195,-0.0056 -0.01709,-0.02265 -0.03354,-0.06754 -0.05042,-0.06754 -0.11258,0.0056 -0.180086,-0.09019 -0.275577,-0.118394 -0.05063,-0.0171 -0.08971,-0.07309 -0.140566,-0.08975 -0.123902,-0.05129 -0.224733,-0.158143 -0.365299,-0.174812 -0.04486,-0.0058 -0.08971,-0.02821 -0.140565,-0.04488 0.01709,0.02223 0.02777,0.03911 0.04486,0.05599 -0.162997,-0.07907 -0.314671,-0.16883 -0.466558,-0.253244 -0.02243,-0.006 -0.0393,-0.02842 -0.05618,-0.03976 l -0.151674,-0.101298 c -0.08417,0.0171 -0.117921,-0.0171 -0.140351,-0.02821 -0.151674,-0.106853 -0.326207,-0.174599 -0.472113,-0.29278 -0.06195,-0.05065 -0.135224,-0.08463 -0.180086,-0.14639 -0.07904,-0.09574 -0.174318,-0.163487 -0.281131,-0.219692 -0.08438,-0.04488 -0.162996,-0.09575 -0.241397,-0.14639 -0.03974,-0.02821 -0.07904,-0.06197 -0.07904,-0.123952 0,-0.03932 -0.01709,-0.07907 -0.06751,-0.0562 -0.02243,-0.03419 -0.04486,-0.0733 -0.07306,-0.08463 -0.06751,-0.02778 -0.112367,-0.07864 -0.162996,-0.123523 -0.05063,-0.04488 -0.08972,-0.106855 -0.151674,-0.129721 -0.112581,-0.04488 -0.180087,-0.14062 -0.247378,-0.219478 -0.157442,-0.185927 -0.298008,-0.38895 -0.444342,-0.585562 -0.01111,-0.0171 -0.03354,-0.02842 -0.05042,-0.04531 0.02222,0.06197 0.05042,0.112625 0.0784,0.168829 -0.05618,-0.02223 -0.09549,-0.06197 -0.129243,-0.101083 -0.0056,0.0056 0.387944,0.653092 0.387944,0.653092 0.03375,0.05065 0.06195,0.101298 0.09549,0.151733 a 0.17303662,0.17310384 0 0 1 -0.168764,-0.08975 c -0.05042,-0.09018 -0.106813,-0.146604 -0.219181,-0.135278 a 0.98160898,0.98199029 0 0 1 -0.0282,-0.12395 c -0.02243,0 -0.0393,0 -0.07904,-0.0056 0.07904,0.12395 0.146547,0.230804 0.219607,0.354755 -0.0282,-0.01667 -0.04486,-0.02778 -0.05618,-0.03355 0.101045,0.106854 0.174105,0.242132 0.303348,0.309877 0.0282,0.129294 0.174319,0.191269 0.208072,0.31522 -0.02777,-0.0058 -0.05063,-0.01132 -0.07861,-0.0171 -0.04529,-0.0562 -0.09613,-0.112411 -0.146334,-0.174387 0.01111,0.03933 0.02777,0.07309 0.05042,0.101298 0.06772,0.08441 0.12967,0.16883 0.208285,0.242132 0.0282,0.02778 0.06751,0.03933 0.06751,0.08975 0.04486,0.02265 0.06195,0.02842 0.07904,0.02842 0.01111,0.03376 -0.0058,0.08441 0.06195,0.07309 0.04486,0.08441 0.08973,0.08441 0.151674,0.05642 0.07263,0.07266 0.112366,0.07864 0.162997,0.03355 0,0.02821 0.0056,0.0562 0.0056,0.07907 0.02222,-0.01154 0.01666,-0.02842 0.01666,-0.05663 0.02777,0.02265 0.04486,0.03376 0.05618,0.04488 0.0564,0.07907 0.106813,0.15216 0.185854,0.214135 0.106812,0.09018 0.202303,0.185926 0.303348,0.270342 0.196536,0.163059 0.416142,0.298337 0.635322,0.422287 0.26981,0.151733 0.52851,0.315221 0.803873,0.46161 0.33176,0.1746 0.685738,0.292781 1.051037,0.37741 a 10.1643,10.168248 0 0 1 0.39948,0.09018 c 0.117921,0.03376 0.236056,0.08441 0.354191,0.112625 0.179872,0.03953 0.365299,0.0733 0.545171,0.106854 0.03931,0.006 0.07904,0.01154 0.123904,0.0171 0.05042,0.01132 0.112366,-0.01112 0.123475,0.0058 0.0282,0.04488 0.05063,0.02244 0.08438,0.0171 0.03931,-0.01153 0.08438,-0.01153 0.129243,-0.01153 0.157443,0.0056 0.30933,0.03933 0.466559,0.02821 0.03354,0 0.08417,-0.02821 0.112366,0.02821 0.05063,-0.02265 0.07861,-0.02265 0.101045,-0.02821 0.0056,0.05065 0,0.05065 -0.01132,0.0562 -0.01132,0.0058 -0.0282,0.01132 -0.05063,0.02821 0.202304,0.03933 0.393498,0.04488 0.561835,0 0.292666,0.02244 0.545599,-0.01132 0.787424,-0.09574 0.02243,0.02821 0.0393,0.06754 0.07306,0.01132 0.01111,-0.0171 0.0393,-0.02265 0.06195,-0.02821 0.05042,-0.01132 0.112367,-0.03376 0.157227,-0.0171 0.05063,0.0171 0.06751,-0.02778 0.1068144,-0.02778 0.06751,0 0.129243,-0.0058 0.191195,-0.0171 0.03354,-0.0056 0.06729,-0.02244 0.106812,-0.03376 a 0.27685859,0.27696614 0 0 0 -0.123903,-0.02821 c 0.0675,-0.03376 0.129244,-0.06197 0.191195,-0.08975 -0.01132,0.01667 -0.02264,0.03911 -0.04486,0.03911 h 0.07861 c -0.01709,0 -0.03952,0.05065 -0.06751,0.08441 0.202304,-0.05044 0.387944,-0.09553 0.567817,-0.140406 -0.06195,-0.118394 0.06729,-0.07907 0.112367,-0.146604 -0.05597,0.0171 -0.112153,0.03419 -0.168764,0.04488 0.191407,-0.09553 0.388158,-0.179943 0.579352,-0.264357 -0.0282,0.03376 -0.06195,0.05065 -0.112367,0.07907 0.03375,0.0053 0.05618,0.0053 0.07306,0.01068 0.08971,0.02842 0.06751,-0.05599 0.09549,-0.106855 0.106812,0 0.151674,-0.01667 0.202517,-0.03355 0.05618,-0.0171 0.112366,-0.03419 0.168763,-0.05642 0.08973,-0.03954 0.174106,-0.09041 0.264042,-0.135278 0.01666,-0.0058 0.04486,0 0.06729,0 0.06195,-0.03954 0.08417,-0.0733 0.101043,-0.06775 0.07904,0.01132 0.135013,-0.0171 0.157443,-0.08975 0.03932,-0.02842 0.06751,-0.05086 0.09571,-0.06775 0.123475,-0.06775 0.241397,-0.135278 0.3653,-0.203022 0.04486,0 0.06751,0 0.07861,-0.0053 0.07349,-0.03419 0.140992,-0.0733 0.208285,-0.112624 -0.01709,-0.0056 -0.05618,-0.02778 -0.05618,-0.02778 0.05618,-0.01154 0.07306,-0.0171 0.106812,-0.02842 0.135012,-0.157717 0.320438,-0.264571 0.461004,-0.388522 0.06195,-0.006 0.06195,-0.02287 0.06195,-0.03419 0.02243,-0.02778 0.04486,-0.06197 0.07263,-0.08441 0.123902,-0.112625 0.258913,-0.208366 0.37128,-0.326547 a 7.8977332,7.9008011 0 0 0 0.466772,-0.506916 c 0.134583,-0.157503 0.269808,-0.31522 0.38239,-0.489819 0.157228,-0.242133 0.292025,-0.490035 0.432592,-0.743707 0.101257,-0.179941 0.191194,-0.360098 0.292665,-0.540254 0.01068,-0.0171 0.03354,-0.03954 0.05042,-0.03954 0.151674,-0.0171 0.303348,-0.02778 0.449683,-0.04488 0.03354,-0.0058 0.07263,-0.02821 0.106811,-0.04488 -0.01709,-0.02842 -0.02841,-0.06197 -0.04529,-0.0904 -0.02243,-0.03376 -0.05618,-0.06197 -0.07861,-0.09574 a 0.53470452,0.53491223 0 0 1 -0.05618,-0.09617 c -0.01709,-0.02778 -0.03375,-0.05044 -0.05063,-0.07864 -0.03375,-0.06197 -0.06751,-0.123951 -0.09549,-0.191483 -0.0058,-0.0171 -0.01709,-0.04488 -0.01132,-0.06197 0.101259,-0.219479 0.140566,-0.456055 0.236057,-0.675746 0.09571,-0.22525 0.123902,-0.478707 0.168764,-0.720839 0.0393,-0.230805 0.06195,-0.46161 0.08971,-0.692416 0.01709,-0.163273 0.03952,-0.320989 0.04486,-0.484263 0.03418,-0.259015 0.02265,-0.501146 0.01709,-0.743705 -0.0056,-0.213708 -0.01709,-0.433401 -0.02777,-0.647537 z M 5.0550166,4.952765 c 0.179873,-0.247902 0.3653,-0.495804 0.545387,-0.749048 0.05618,-0.0733 0.101045,-0.151733 0.157228,-0.225248 0.01709,-0.02244 0.03974,-0.03376 0.06772,-0.05642 l -0.0056,-0.01132 c 0.02265,-0.02821 0.04486,-0.05065 0.0564,-0.0733 0.0282,-0.04488 0.04486,-0.09574 0.06751,-0.14639 0.0056,-0.01154 0.02243,-0.02265 0.02243,-0.02265 0.07904,0.03933 0.07904,-0.04488 0.106813,-0.0733 0.05063,-0.05599 0.101258,-0.117967 0.146119,-0.174386 0.03354,-0.04488 0.06729,-0.08441 0.09549,-0.135063 0.0056,-0.0171 -0.01132,-0.04488 -0.01709,-0.06754 h -0.01666 c 0.01666,-0.01132 0.03354,-0.02821 0.05042,-0.03954 0.0056,0 0.0056,0 0.01111,-0.0053 0.03375,-0.05065 0.0675,-0.101512 0.101258,-0.14639 0.06751,-0.09019 0.140566,-0.18037 0.219181,-0.259229 a 1.1040163,1.1044452 0 0 1 -0.03375,0.07907 c 0.0058,0 0.0058,0.0056 0.01132,0.0056 0.06751,-0.09018 0.140565,-0.1746 0.208071,-0.264999 -0.0058,-0.0053 -0.01132,-0.01068 -0.01709,-0.01068 -0.02777,0.02778 -0.05042,0.05599 -0.07861,0.0842 -0.0058,-0.0058 -0.01132,-0.01132 -0.01709,-0.01132 0.0564,-0.07309 0.112581,-0.14639 0.168763,-0.230806 0.01132,0.0171 0.02243,0.03933 0.04486,0.08441 0.02264,-0.05663 0.04486,-0.09617 0.06195,-0.135278 -0.01709,0.0171 -0.03931,0.03376 -0.05618,0.05065 l -0.01709,-0.0171 0.101259,-0.151733 c 0.106812,-0.15216 0.213626,-0.309878 0.320437,-0.462038 0.03974,-0.0562 0.09036,-0.101297 0.123904,-0.157716 0.106812,-0.213709 0.275576,-0.382538 0.40482,-0.580006 0.0282,-0.03933 0.0675,-0.07309 0.101257,-0.10685301 0.02777,-0.03376 0.05042,-0.02265 0.07263,0.0056 0.151674,0.19148301 0.303775,0.38852201 0.455662,0.58000401 0.112368,0.141048 0.224735,0.275685 0.331547,0.422503 0.129243,0.180156 0.252933,0.360311 0.38239,0.540681 0.14612,0.208153 0.29224,0.416733 0.432806,0.63044 0.213625,0.315434 0.4161424,0.630868 0.6297674,0.946302 0.157443,0.230805 0.314885,0.456053 0.466772,0.686858 H 10.474239 C 10.210198,4.74963 9.9401756,4.72722 9.6761336,4.73833 c -0.359959,0.0171 -0.725258,0.05642 -1.085217,0.08463 -0.455022,0.03933 -0.916453,0.04488 -1.371475,0.04488 -0.163211,0 -0.326207,0.02265 -0.489202,0.03419 -0.196536,0.01068 -0.387945,0.02223 -0.584694,0.02778 a 27.899485,27.910323 0 0 1 -0.685738,0.02265 c -0.129457,0.0056 -0.264254,0 -0.404821,0 z m 6.4480724,2.590147 v 0.05129 c -0.0056,0 -0.01111,0.0053 -0.02243,0.0053 -0.02222,-0.07907 -0.04486,-0.163273 -0.07263,-0.242131 C 11.351629,7.194097 11.289681,7.030397 11.188636,6.88422 11.076055,6.726503 10.975012,6.56323 10.86243,6.399957 10.83466,6.360627 10.79492,6.326867 10.761386,6.293102 10.643251,6.163381 10.525116,6.028104 10.373442,5.932576 A 4.5946564,4.5964412 0 0 0 9.6706056,5.572092 1.6325257,1.6331599 0 0 1 9.4740706,5.470794 h 0.134583 l 0.9613154,-0.0171 c 0.208071,-0.0053 0.410589,-0.0053 0.618659,-0.01667 0.05042,0 0.07862,0.0171 0.106813,0.06197 0.05042,0.08441 0.101045,0.168829 0.157228,0.253458 0.0056,0.01111 0.01666,0.02778 0.01666,0.04488 0,0.123951 0,0.253458 0.0058,0.377409 0.0056,0.129507 0.01709,0.253459 0.02243,0.382965 0,0.129508 -0.01132,0.264571 -0.0056,0.399635 0.0056,0.191697 0.01111,0.388949 0.01111,0.585562 z M 5.4540696,5.656934 c 0.264256,-0.01132 0.516975,-0.02821 0.775889,-0.03954 0.202302,-0.01068 0.41016,-0.01667 0.612677,-0.02778 0.08438,-0.0058 0.16321,-0.01132 0.247378,0 -0.08971,0.04488 -0.179872,0.08975 -0.258486,0.14639 -0.101258,0.06754 -0.196536,0.157503 -0.298008,0.230805 -0.101259,0.0733 -0.191195,0.163274 -0.275577,0.259015 -0.106813,0.129508 -0.224735,0.242132 -0.337101,0.366083 -0.07904,0.09019 -0.168763,0.1746 -0.236269,0.270341 -0.09571,0.123951 -0.180087,0.259014 -0.270023,0.399635 0.0282,-0.534912 0.06195,-1.064268 0.0393,-1.604951 z m 3.671153,5.417509 c -0.179871,0.04488 -0.365298,0.09575 -0.551153,0.118181 -0.157228,0.02223 -0.320438,0.01667 -0.48322,0.01667 -0.146334,0 -0.286899,-0.0056 -0.43302,-0.0171 -0.162995,-0.01667 -0.325991,-0.03355 -0.483433,-0.106855 -0.135011,-0.06197 -0.275578,-0.11818 -0.410162,-0.185926 -0.135224,-0.06731 -0.270022,-0.146177 -0.37128,-0.270127 -0.07306,-0.09018 -0.17432,-0.163273 -0.264255,-0.242131 0.01709,0.06775 0.05618,0.12395 0.118134,0.163486 -0.02777,0.03376 -0.06729,0.0171 -0.123475,-0.0733 -0.01709,0.01132 -0.03375,0.0171 -0.04486,0.02265 0.01666,-0.03954 0.03354,-0.07907 0.05042,-0.112624 -0.02243,-0.04488 -0.05063,-0.09553 -0.07306,-0.14062 -0.04486,-0.0733 -0.08972,-0.151733 -0.129243,-0.225249 -0.01112,-0.0171 -0.01112,-0.03376 -0.02222,-0.05065 a 1.2362506,1.2367308 0 0 1 -0.07904,-0.101084 c -0.04486,-0.06775 -0.08396,-0.141048 -0.140352,-0.208366 0,0.0171 0.0056,0.03376 0.0056,0.0562 -0.0058,0 -0.01131,0.0056 -0.01131,0.0056 L 5.5611496,9.436192 c -0.0056,0 -0.0056,0 -0.01111,0.0058 l 0.101044,0.371853 c -0.0053,0 -0.01068,0.0053 -0.01645,0.0053 a 0.31915643,0.31928041 0 0 1 -0.04486,-0.0733 c -0.01155,-0.04488 -0.04529,-0.04488 -0.07327,-0.02821 -0.01709,0.01132 -0.0282,0.05065 -0.02243,0.06753 0.0393,0.09617 0.08417,0.191697 0.129245,0.287438 0.01131,0.03376 0.02243,0.06197 0.0393,0.09575 0.0056,0.01132 0.02243,0.02265 0.02243,0.03953 0.02243,0.04488 0.0393,0.08975 0.06729,0.129506 0.05063,0.06754 0.106814,0.135065 0.157442,0.202597 0.05063,0.06775 0.09549,0.141047 0.140567,0.208366 0.0056,0.01132 0.02243,0.01132 0.02777,0.0171 0.02841,0.08441 0.123903,0.14639 0.191409,0.112411 0.01709,0.129507 0.157441,0.1746 0.213624,0.29855 a 2.5902087,2.5912149 0 0 1 -0.162996,-0.0733 c -0.0056,0.0058 -0.0056,0.01132 -0.01132,0.02265 0.06751,0.03376 0.135011,0.06754 0.196536,0.106854 0.05661,0.03419 0.112794,0.06775 0.163422,0.106853 0.06729,0.06197 0.146121,0.09617 0.241398,0.118609 a 0.06195138,0.06197545 0 0 0 -0.01068,-0.02265 c 0.157015,0.0733 0.320437,0.15216 0.443912,0.214136 -0.584691,0.01111 -1.208692,0.02244 -1.855336,0.03376 0,-0.106854 -0.0056,-0.208366 -0.0056,-0.315434 0,-0.04488 0.01132,-0.08441 0.0056,-0.129507 -0.01709,-0.259015 -0.01709,-0.518029 -0.05063,-0.771488 -0.03333,-0.270341 -0.03333,-0.535126 -0.02777,-0.805253 0.0056,-0.146604 -0.0056,-0.298551 -0.01132,-0.444941 0,-0.197253 0,-0.388522 0.0058,-0.585562 0,-0.02842 0.0111,-0.05086 0.02243,-0.07907 h 0.01666 c 0.0056,0.01132 0,0.02821 0.01111,0.03376 0.01709,0.0171 0.04486,0.04488 0.0564,0.03954 0.03354,-0.02265 0.08417,-0.04488 0.09549,-0.07907 0.02841,-0.06732 0.03952,-0.14062 0.03952,-0.208151 0,-0.05086 0.02243,-0.08463 0.04486,-0.118395 0.01133,-0.0171 0.01709,-0.03419 0.0282,-0.05642 -0.02243,-0.0171 -0.04486,-0.02821 -0.07306,-0.05065 0.02243,-0.06197 0.01709,-0.135277 0.10126,-0.168829 0.01068,-0.0058 0.01068,-0.03419 0.01666,-0.05086 0.0056,-0.04488 0.01111,-0.09574 0.01709,-0.141046 0.01068,0.0171 0.01666,0.02287 0.02777,0.03419 0.0058,-0.01132 0.01132,-0.0171 0.01132,-0.0171 0,-0.02244 -0.0053,-0.06754 0,-0.06754 0.06772,-0.01068 0.03952,-0.0842 0.07327,-0.117967 0.0056,-0.0056 -0.0056,-0.02265 -0.0056,-0.03376 0,-0.01132 0,-0.02821 0.0056,-0.02821 0.07861,-0.0171 0.06751,-0.101297 0.118135,-0.141047 0.01709,-0.01069 0.02243,-0.02778 0.04486,-0.05599 0.04486,0.07907 -0.03375,0.118181 -0.03931,0.1746 0.09549,-0.05642 0.123904,-0.191482 0.06751,-0.230805 0.02243,-0.0171 0.04486,-0.03954 0.06195,-0.06197 0.06195,-0.06775 0.129243,-0.129722 0.185427,-0.197253 0.0393,-0.05065 0.06195,-0.112624 0.101045,-0.163274 0.02243,-0.02821 0.06729,-0.05065 0.101045,-0.06754 0.101258,-0.05642 0.196536,-0.118394 0.258486,-0.214135 0.01132,-0.01111 0.0282,-0.02244 0.04486,-0.03376 0.01709,-0.01132 0.05084,-0.01132 0.0564,-0.02821 0.0058,-0.01111 -0.01111,-0.03933 -0.02243,-0.0562 0.02243,-0.01132 0.04486,-0.03376 0.08972,-0.05642 -0.01666,0.03419 -0.02222,0.05663 -0.03354,0.07907 l 0.0282,0.02821 c 0.05063,-0.03933 0.129243,-0.08441 0.179873,-0.118181 0,-0.006 -0.02841,-0.02842 -0.02841,-0.02842 -0.03375,0.0171 -0.08417,0.04488 -0.134584,0.06754 0.01068,-0.0171 0.01068,-0.02821 0.01666,-0.03376 0.07861,-0.05065 0.157228,-0.101298 0.241396,-0.141048 0.196963,-0.08975 0.393712,-0.179943 0.590461,-0.264357 0.03354,-0.0171 0.07861,-0.0058 0.117921,-0.0058 0.01709,0 0.0282,0 0.04486,-0.0053 0.09014,-0.02821 0.180086,-0.0562 0.270022,-0.07907 a 0.46783975,0.46802149 0 0 1 0.123904,-0.01667 c 0.168336,0.0056 0.337101,0.0056 0.50565,0.0171 0.07306,0.0053 0.140567,0.02244 0.208071,0.04488 0.08417,0.02821 0.174319,0.06754 0.252933,0.106855 0.0957,0.05086 0.185854,0.106853 0.275577,0.168829 0.16321,0.107281 0.314884,0.225462 0.4778794,0.321204 0.157442,0.09574 0.281132,0.225248 0.38239,0.371852 0.123904,0.174387 0.264255,0.332103 0.320439,0.546026 l 0.08417,0.371852 c 0.01709,0.06753 0.05661,0.135063 0.03972,0.213708 -0.0282,0.141048 -0.05063,0.287438 -0.07306,0.428272 -0.01132,0.05599 -0.02265,0.112411 -0.01709,0.168829 0.01132,0.174387 -0.05618,0.326547 -0.123476,0.48405 -0.02264,0.05086 -0.05618,0.101512 -0.08438,0.157718 a 0.16812323,0.16818854 0 0 0 0.04486,0.02265 l 0.05084,-0.101724 c 0.0058,0 0.0058,0 0.01132,0.0058 -0.02777,0.07907 -0.05042,0.163486 -0.0784,0.242344 -0.06751,0.1746 -0.135011,0.354757 -0.219394,0.523586 -0.04486,0.09575 -0.123902,0.1746 -0.179872,0.264999 -0.05618,0.07864 -0.101259,0.163059 -0.157443,0.236361 -0.05063,0.06197 -0.1010444,0.123951 -0.1687634,0.16883 -0.151674,0.112625 -0.309116,0.225249 -0.472113,0.315434 -0.101044,0.06197 -0.219179,0.09574 -0.331546,0.12395 z m 0.500312,0.472937 c 0.252932,-0.106854 0.4610044,-0.259228 0.6519854,-0.433828 0.02777,-0.02821 0.05618,-0.0562 0.08972,-0.07907 0.236271,-0.146177 0.410161,-0.348985 0.567816,-0.574235 0.179873,-0.259015 0.298008,-0.551794 0.444342,-0.827693 0.01111,-0.02265 0.02243,-0.04488 0.03354,-0.06197 -0.01111,0.64198 0.06195,1.272634 0.146119,1.909058 -0.635322,0.02244 -1.281752,0.04488 -1.9339514,0.06754 z m 5.7003824,-0.16883 c -0.0053,0.01068 -0.01666,0.02223 -0.02222,0.03355 -0.0058,-0.01132 -0.0058,-0.02821 -0.01131,-0.05065 -0.03375,0.08975 -0.106814,0.04488 -0.157442,0.04488 -0.303348,0.0058 -0.612678,0.0058 -0.916453,0.0058 -0.29224,0 -0.590034,0 -0.882275,0.0056 -0.0957,0 -0.196961,0.02265 -0.292666,0.02821 -0.230288,0.01132 -0.46079,0.0171 -0.691292,0.02244 -0.01709,0 -0.03375,-0.02778 -0.06195,-0.05065 -0.0056,0.01132 -0.01709,0.02821 -0.03354,0.05065 -0.0058,-0.01112 -0.01709,-0.02244 -0.0282,-0.03933 -0.0053,0.0171 -0.01111,0.03376 -0.01666,0.04488 h -0.01709 c -0.01111,-0.07864 -0.03354,-0.151733 -0.03354,-0.230805 0,-0.16883 0.01709,-0.33766 0.02243,-0.50649 0.0058,-0.07907 0,-0.152374 0,-0.225462 0.02264,0.0171 0.03952,0.02821 0.06195,0.04488 0.01132,-0.02223 0.02243,-0.0391 0.03375,-0.05599 0,0 -0.01132,-0.0056 -0.02243,-0.0171 0.01111,-0.0056 0.02243,-0.01667 0.02243,-0.02244 0.0056,-0.0171 0.01709,-0.03376 0.01709,-0.04488 0,-0.03954 -0.01154,-0.0733 -0.01709,-0.106853 0.0056,0 0.01111,0 0.01709,-0.0058 l 0.03354,0.16883 h 0.01709 c -0.02286,-0.03932 0.0502,-0.07309 -0.01153,-0.118181 -0.0053,-0.0058 0.0058,-0.03954 0.0058,-0.05642 -0.01709,-0.03419 -0.02777,-0.06775 -0.04486,-0.112838 0.0056,-0.0056 0.02243,-0.01132 0.0393,-0.0171 -0.02222,-0.01111 -0.03909,-0.02223 -0.05597,-0.02778 0.05618,-0.05086 0.05618,-0.07907 0.0056,-0.135278 0.01132,-0.0058 0.02243,-0.0058 0.02243,-0.01153 0,-0.05065 0,-0.101299 -0.01132,-0.151734 -0.01132,-0.05663 0.01709,-0.123951 -0.06751,-0.158144 a 0.16876411,0.16882967 0 0 0 0.02264,0.04531 c 0,0 -0.01709,0.0056 -0.03375,0.0171 -0.07306,-0.06775 -0.02777,-0.158144 -0.04486,-0.259229 0.03932,0.01111 0.0675,0.02244 0.09549,0.03376 -0.01111,-0.03954 -0.0393,-0.08463 -0.05618,-0.135277 h -0.02243 V 9.01284 c 0,0.0058 0.03931,0.0058 0.06195,0.01154 0,-0.0058 0.0056,-0.01132 0.0056,-0.0171 -0.01709,-0.02244 -0.03952,-0.04488 -0.06195,-0.07309 l 0.01131,-0.01132 C 12.162029,8.86645 12.184249,8.787592 12.184249,8.77071 V 8.376417 c 0.0564,0.05642 -0.02777,0.129508 0.0564,0.163488 v -0.05642 h -0.0058 c -0.0056,-0.08441 -0.0056,-0.168829 -0.01111,-0.253458 h -0.01132 c -0.0056,0.01132 -0.0056,0.0171 -0.01132,0.02821 h -0.01131 l 0.03375,-1.345936 c 0.05618,0.0733 0.117921,0.141048 0.157228,0.213708 0.12967,0.236789 0.298221,0.439598 0.455663,0.653521 0.135011,0.185926 0.258486,0.388522 0.382389,0.580005 0.151674,0.230805 0.297793,0.46161 0.449681,0.692842 0.112368,0.174386 0.230716,0.348986 0.34821,0.518029 0.106813,0.151733 0.219607,0.298551 0.331974,0.444941 0.09549,0.129508 0.196535,0.259015 0.29224,0.388522 0.11258,0.157717 0.224947,0.315434 0.337528,0.467381 0.05618,0.07907 0.117921,0.157717 0.179446,0.236575 0.03418,0.04488 0.0846,0.07907 0.118348,0.106854 -0.0056,0 -0.01132,0 -0.02243,-0.0056 0.01666,0.02266 0.02777,0.03954 0.03908,0.05065 0.06195,0.03376 0.06751,0.06775 0.03375,0.118394 z m 0.286899,-1.408338 v -0.03933 c 0,0.01132 0.0056,0.02821 0,0.03954 z M 15.804011,7.48692 c -0.0058,0 -0.03931,-0.03376 -0.04486,-0.03954 -0.0058,0.0171 0,0.03419 -0.01131,0.05642 -0.0058,-0.0171 -0.04486,-0.01154 -0.04486,-0.02842 -0.0058,0.07907 0.03354,0.157716 0.02777,0.236575 0.01709,-0.01132 0.08438,-0.0171 0.101258,-0.03376 a 0.04272509,0.04274169 0 0 0 0.02243,0.01132 c -0.11258,0.0842 -0.08438,0.168829 -0.03375,0.264357 0.01111,0.02244 0.04486,0.06753 0.01111,0.112624 -0.01132,0.01132 0.0056,0.04488 0.01111,0.0733 h 0.01709 v 0.01111 l -0.05084,0.01667 c -0.01132,-0.0171 -0.07862,-0.05065 -0.07862,-0.07907 v 0.287438 c 0.05618,0.0171 0.05618,0.09574 0.07862,0.135278 a 0.16876411,0.16882967 0 0 0 0.02243,-0.04488 l 0.0056,0.0053 c -0.0058,0.03419 -0.01132,0.06795 -0.02264,0.101724 -0.01111,0.05065 -0.02243,0.09575 -0.02777,0.14639 0,0.0058 0.01067,0.0171 0.01067,0.02265 -0.06153,0.141048 -0.02777,0.29855 -0.0502,0.444941 -0.01709,0.106854 0,0.219692 -0.01132,0.332316 -0.01131,0.09574 -0.03375,0.197039 -0.05618,0.292781 -0.0058,0.0171 -0.01709,0.02244 -0.04529,0.03376 0.01132,-0.06732 0.0058,-0.112411 -0.0056,-0.174386 -0.0056,0 -0.07862,-0.03933 -0.08438,-0.03933 0,0.07907 0.04486,0.185927 0.06195,0.275684 -0.01709,-0.0053 -0.08438,-0.04488 -0.08972,-0.04488 -0.01154,0.06754 -0.01154,0.157718 -0.01709,0.230806 -0.0058,0.05642 -0.05618,0.106854 -0.06195,0.168829 0,0.03419 0.0393,0.05663 0.03375,0.112838 h 0.04486 c 0,-0.112624 0.05084,-0.213708 0.05084,-0.332316 h 0.01666 c 0.006,0.01132 0.02286,0.02265 0.01709,0.02821 -0.01111,0.06197 -0.03354,0.129507 -0.02777,0.191483 0,0.03419 0.02777,0.06775 0.01666,0.107282 -0.01132,0.03376 -0.01709,0.06754 -0.02243,0.11818 -0.0058,-0.02821 -0.01132,-0.03933 -0.01132,-0.0562 -0.0056,0 -0.05618,-0.0058 -0.06195,-0.0058 -0.0056,0.03376 0.03953,0.06775 0.03375,0.09574 -0.0056,0.0058 -0.01111,0.0058 -0.02243,0.01132 L 15.319955,10.263342 C 15.173621,10.049634 15.027288,9.835498 14.881381,9.615805 A 1.3407133,1.3412341 0 0 1 14.780104,9.447053 7.9479352,7.9510226 0 0 0 14.201178,8.585381 C 14.038183,8.377015 13.908512,8.151553 13.756838,7.932288 13.616486,7.723923 13.47592,7.521113 13.335355,7.312534 13.284725,7.245214 13.222987,7.18324 13.177913,7.109938 13.031793,6.879133 12.902335,6.642558 12.75643,6.411752 12.632527,6.22027 12.497943,6.034343 12.368485,5.848631 12.323195,5.786661 12.278345,5.719124 12.233261,5.651378 a 0.08117767,0.0812092 0 0 1 -0.01111,-0.03954 c -0.01132,-0.123951 -0.02265,-0.247902 -0.0282,-0.366082 0,-0.112625 0.01132,-0.225249 0.01132,-0.34343 V 4.800815 c 0,-0.02778 0.0056,-0.05065 0.0056,-0.07907 0.0056,-0.0053 0.01131,-0.01667 0.01709,-0.02223 -0.163211,0 -0.331974,-0.0056 -0.494972,0 -0.106811,0.0056 -0.162995,-0.03933 -0.236055,-0.118181 C 11.283308,4.338988 11.125866,4.063091 10.940439,3.804076 10.766122,3.556174 10.586249,3.314257 10.406376,3.071911 10.260042,2.874872 10.113709,2.68339 9.9678026,2.48635 9.8048056,2.261101 9.6473636,2.035852 9.4786006,1.810604 9.2762976,1.540263 9.0684396,1.269921 8.8603676,0.99957999 c -0.09571,-0.12395 -0.202516,-0.242131 -0.309329,-0.371852 0.07327,0.01154 0.140566,0.02265 0.20807,0.02842 l 0.269811,0.0171 c 0.202516,0.01667 0.404818,0.02778 0.607123,0.05599 0.168763,0.02265 0.337101,0.05642 0.5114194,0.08463 0.371067,0.06197 0.736367,0.163274 1.090558,0.28145501 0.207858,0.06775 0.410161,0.158144 0.612678,0.242345 0.455022,0.185926 0.888254,0.411176 1.315506,0.647537 0.134583,0.0733 0.213625,0.191696 0.31467,0.29855 0.146119,0.152374 0.292239,0.304321 0.432805,0.462038 0.162996,0.185927 0.31467,0.377409 0.472112,0.568892 0.140565,0.168829 0.286685,0.337659 0.427251,0.506488 0.04486,0.05086 0.07904,0.112839 0.118135,0.169258 0.08971,0.135064 0.190981,0.264571 0.269595,0.410961 0.05618,0.106855 0.08972,0.230805 0.129243,0.348986 0.05618,0.1746 0.11258,0.343644 0.168764,0.518029 0.03931,0.129721 0.07306,0.264999 0.101046,0.399635 0.02264,0.0904 0.01709,0.185926 0.04486,0.276325 0.03418,0.118181 0,0.247902 0.03418,0.36587 0.0053,0.01132 0.01068,0.02821 0.01666,0.03954 0.02243,0.02244 0.03932,0.04488 0.0056,0.07907 -0.0056,0.0053 -0.0056,0.02778 0,0.04488 0.01132,-0.01132 0.01709,-0.02265 0.0282,-0.03954 0,0.01132 0.0056,0.0171 0.0056,0.02265 0,0.02244 -0.0056,0.04488 0,0.06753 0,0.01132 0.01132,0.02821 0.01709,0.03933 0.01111,-0.01111 0.02222,-0.0171 0.04486,-0.03376 0.05042,0.191482 0.05618,0.382965 0.05618,0.580004 0,0.185926 0.03375,0.371853 -0.04486,0.552009 0.01666,-0.06197 -0.02264,-0.118394 -0.0058,-0.1746 z M 2.5592316,7.610871 c 0.06195,-0.07907 0.123903,-0.157717 0.191195,-0.236576 0.0056,0.0056 0.05042,0.0171 0.05618,0.02244 -0.06195,0.07907 -0.146334,0.185926 -0.208072,0.270341 -0.01132,-0.01132 -0.0282,-0.05065 -0.0393,-0.0562 z m -1.59663697,2.759403 c -0.04486,-0.09575 -0.08972,-0.197252 -0.134584,-0.292781 a 0.19952618,0.19960369 0 0 1 0.0502,-0.02265 c 0.06195,0.09018 0.08971,0.197039 0.13458397,0.29278 0,0 -0.04486,0.02265 -0.05042,0.02265 z M 2.4156756,7.953231 c -0.03632,0.01838 -0.06366,0.03846 -0.05896,0.09125 0,0.01667 -0.02777,0.03911 -0.05618,0.05599 -0.05063,0.06197 -0.123903,0.157717 -0.174318,0.214136 0.01709,0.0056 0.04529,0.0056 0.04529,0.01111 0,0.0171 0,0.03954 -0.01131,0.05065 -0.0564,0.04488 -0.11258,0.08463 -0.163211,0.129508 -0.0111,0.0056 -0.01709,0.02778 -0.02243,0.03933 -0.02222,0.04488 -0.02777,0.106854 -0.106813,0.09575 0.0058,-0.05642 -0.0111,-0.08441 -0.0784,-0.06754 0.04486,-0.0733 0.08417,-0.129507 0.123475,-0.191483 0.06195,-0.05065 0.118348,-0.09574 0.174532,-0.14639 l 0.101259,-0.06775 c 0.02265,-0.0171 0.03952,-0.03933 0.06195,-0.0562 0,0.0056 0.01709,-0.0056 0.0282,-0.01132 0.01709,-0.04488 0.03375,-0.09574 0.05063,-0.141047 -0.0058,-0.0053 -0.0058,-0.01068 -0.01152,-0.01667 -0.02243,0.03376 -0.03931,0.06775 -0.06195,0.101512 l -0.0056,-0.006 c -0.05042,0.04488 -0.117921,0.118394 -0.157229,0.157717 a 0.1644916,0.1645555 0 0 1 0.01111,-0.05065 c 0.03375,-0.03376 0.07306,-0.06197 0.106812,-0.09574 0,0 0.01709,-0.0056 0.0282,-0.0171 l -0.0058,-0.0053 c 0.01154,-0.02821 0.01709,-0.05642 0.02286,-0.06775 0.02777,-0.02244 0.05618,-0.02778 0.06195,-0.04488 0.02222,-0.06197 0.03909,-0.08463 0.08417,-0.07907 0,-0.01111 0,-0.01667 -0.01111,-0.02778 0.03375,-0.02265 0.06751,-0.05086 0.101259,-0.07352 0.0056,0.0056 0.01132,0.0056 0.01709,0.01111 -0.02264,0.03376 -0.02264,0.06197 -0.04529,0.101298 0,0 -0.01709,0.0058 -0.02777,0.0058 -0.01154,0.0171 -0.02264,0.03376 -0.02841,0.05065 0,0.0056 0.0058,0.02244 0.0282,0.03933 l -0.003,0.0015 0.01965,0.01004 c 0.02243,-0.03932 0.04486,-0.0733 0.06751,-0.112624 l 0.02243,0.02244 -0.05084,0.08463 -0.151674,0.219692 c -0.01132,0.0171 -0.02264,0.04488 -0.03952,0.05086 -0.01709,0.0056 -0.03931,-0.0058 -0.06195,-0.0171 0.07562,-0.02137 0.151248,-0.126087 0.17731,-0.24897 z M 0.74341463,9.694528 c 0.02243,0.0562 0.04486,0.118181 0.06751,0.1746 a 0.16812323,0.16818854 0 0 0 -0.04486,0.02244 c -0.02264,-0.05642 -0.05084,-0.118181 -0.07327,-0.1746 a 0.13885654,0.13891048 0 0 1 0.05084,-0.02244 z M 13.257595,15.078271 c 0.02777,-0.01132 0.06152,-0.0171 0.106813,-0.02821 -0.05084,0.03932 -0.09014,0.06754 -0.123902,0.101298 -0.0058,-0.0056 -0.01132,-0.01132 -0.01709,-0.01132 0.01132,-0.02223 0.02265,-0.03911 0.03418,-0.06154 z" />
</svg>
