<?xml version="1.0" encoding="UTF-8" standalone="no"?>
<!-- Created with Inkscape (http://www.inkscape.org/) -->

<svg
   xmlns:dc="http://purl.org/dc/elements/1.1/"
   xmlns:cc="http://creativecommons.org/ns#"
   xmlns:rdf="http://www.w3.org/1999/02/22-rdf-syntax-ns#"
   xmlns:svg="http://www.w3.org/2000/svg"
   xmlns="http://www.w3.org/2000/svg"
   xmlns:xlink="http://www.w3.org/1999/xlink"
   xmlns:sodipodi="http://sodipodi.sourceforge.net/DTD/sodipodi-0.dtd"
   xmlns:inkscape="http://www.inkscape.org/namespaces/inkscape"
   inkscape:version="0.91 r13725"
   version="1.1"
   id="svg2"
   viewBox="0 0 70.000002 70.000002"
   height="19.755556mm"
   width="19.755556mm"
   sodipodi:docname="responsive.svg">
  <sodipodi:namedview
     inkscape:window-maximized="1"
     inkscape:window-y="27"
     inkscape:window-x="0"
     inkscape:window-height="712"
     inkscape:window-width="1360"
     showgrid="false"
     inkscape:current-layer="svg2"
     inkscape:document-units="px"
     inkscape:cy="141.15073"
     inkscape:cx="-62.361967"
     inkscape:zoom="1"
     inkscape:pageshadow="2"
     inkscape:pageopacity="0.0"
     borderopacity="1.0"
     bordercolor="#666666"
     pagecolor="#ffffff"
     id="base"
     inkscape:snap-global="false"
     fit-margin-top="0"
     fit-margin-left="0"
     fit-margin-right="0"
     fit-margin-bottom="0"
     showborder="false"
     showguides="true"
     inkscape:guide-bbox="true"
     inkscape:object-nodes="true"
     inkscape:snap-intersection-paths="false"
     inkscape:snap-bbox="true"
     inkscape:object-paths="false"
     inkscape:bbox-paths="false"
     inkscape:bbox-nodes="false"
     inkscape:snap-bbox-edge-midpoints="false"
     inkscape:snap-bbox-midpoints="false"
     inkscape:snap-nodes="true" />
  <defs
     id="defs4">
    <linearGradient
       id="linearGradient7757"
       inkscape:collect="always">
      <stop
         id="stop7759"
         offset="0"
         style="stop-color:#000000;stop-opacity:1" />
      <stop
         id="stop7761"
         offset="1"
         style="stop-color:#000000;stop-opacity:0.51434879" />
    </linearGradient>
    <linearGradient
       inkscape:collect="always"
       id="linearGradient7698">
      <stop
         style="stop-color:#000000;stop-opacity:1"
         offset="0"
         id="stop7700" />
      <stop
         style="stop-color:#000000;stop-opacity:0.245"
         offset="1"
         id="stop7702" />
    </linearGradient>
    <inkscape:perspective
       sodipodi:type="inkscape:persp3d"
       inkscape:vp_x="0 : 58.100431 : 1"
       inkscape:vp_y="0 : 1000 : 0"
       inkscape:vp_z="116.27562 : 58.100431 : 1"
       inkscape:persp3d-origin="58.137811 : 38.733621 : 1"
       id="perspective7532" />
    <linearGradient
       id="linearGradient7516">
      <stop
         style="stop-color:#ffd668;stop-opacity:1"
         offset="0"
         id="stop7518" />
      <stop
         style="stop-color:#d05d00;stop-opacity:1"
         offset="1"
         id="stop7520" />
    </linearGradient>
    <linearGradient
       id="linearGradient7876">
      <stop
         id="stop7872"
         offset="0"
         style="stop-color:#e2a500;stop-opacity:1" />
      <stop
         id="stop7874"
         offset="1"
         style="stop-color:#ff7200;stop-opacity:1" />
    </linearGradient>
    <linearGradient
       id="linearGradient7799">
      <stop
         style="stop-color:#00d6d0;stop-opacity:1"
         offset="0"
         id="stop7795" />
      <stop
         style="stop-color:#ff7200;stop-opacity:1"
         offset="1"
         id="stop7797" />
    </linearGradient>
    <filter
       style="color-interpolation-filters:sRGB"
       id="filter7783"
       x="-0.030590801"
       width="1.0611815"
       y="-0.099439204"
       height="1.1988784">
      <feGaussianBlur
         stdDeviation="1.4918295"
         id="feGaussianBlur7785" />
    </filter>
    <radialGradient
       xlink:href="#linearGradient7799"
       id="radialGradient7803"
       cx="131.61674"
       cy="153.427"
       fx="131.61674"
       fy="153.427"
       r="47.577202"
       gradientTransform="matrix(-1.8665385,-1.4192561,1.7670177,0.56365853,106.17622,250.75607)"
       gradientUnits="userSpaceOnUse" />
    <radialGradient
       xlink:href="#linearGradient7876"
       id="radialGradient7805"
       gradientUnits="userSpaceOnUse"
       gradientTransform="matrix(-1.8665385,-1.4192561,1.7670177,0.56365853,106.17622,250.75607)"
       cx="131.61674"
       cy="153.427"
       fx="131.61674"
       fy="153.427"
       r="47.577202" />
    <linearGradient
       inkscape:collect="always"
       xlink:href="#linearGradient7516"
       id="linearGradient7514"
       x1="-14.627414"
       y1="-137.62965"
       x2="118.06601"
       y2="-7.5220156"
       gradientUnits="userSpaceOnUse" />
    <linearGradient
       inkscape:collect="always"
       xlink:href="#linearGradient7516"
       id="linearGradient7538"
       gradientUnits="userSpaceOnUse"
       x1="-14.627414"
       y1="-137.62965"
       x2="118.06601"
       y2="-7.5220156"
       gradientTransform="translate(-159.80613,4.2426406)" />
    <linearGradient
       inkscape:collect="always"
       xlink:href="#linearGradient7516"
       id="linearGradient7540"
       gradientUnits="userSpaceOnUse"
       x1="-14.627414"
       y1="-137.62965"
       x2="118.06601"
       y2="-7.5220156"
       gradientTransform="translate(162.63456,0)" />
    <linearGradient
       inkscape:collect="always"
       xlink:href="#linearGradient7698"
       id="linearGradient7704"
       x1="171.78516"
       y1="-105.88184"
       x2="281.94336"
       y2="-5.8818374"
       gradientUnits="userSpaceOnUse" />
    <linearGradient
       inkscape:collect="always"
       xlink:href="#linearGradient7698"
       id="linearGradient7727"
       x1="44.439453"
       y1="-88.84993"
       x2="117.26929"
       y2="-11.775294"
       gradientUnits="userSpaceOnUse" />
    <linearGradient
       inkscape:collect="always"
       xlink:href="#linearGradient7698"
       id="linearGradient7739"
       x1="-117.73328"
       y1="-48.41478"
       x2="-27.249998"
       y2="-48.41478"
       gradientUnits="userSpaceOnUse" />
    <linearGradient
       inkscape:collect="always"
       xlink:href="#linearGradient7757"
       id="linearGradient7755"
       x1="-133.875"
       y1="-63.549137"
       x2="-113.125"
       y2="-42.549137"
       gradientUnits="userSpaceOnUse" />
  </defs>
  <metadata
     id="metadata7">
    <rdf:RDF>
      <cc:Work
         rdf:about="">
        <dc:format>image/svg+xml</dc:format>
        <dc:type
           rdf:resource="http://purl.org/dc/dcmitype/StillImage" />
        <dc:title></dc:title>
      </cc:Work>
    </rdf:RDF>
  </metadata>
  <g
     id="layer1"
     inkscape:groupmode="layer"
     inkscape:label="Layer 1"
     transform="translate(154.3485,-369.22119)" />
  <g
     id="layer1-4"
     transform="matrix(3.5433071,0,0,3.5433068,91.654067,-510.8598)">
    <g
       id="g7905"
       transform="matrix(0.43693947,0,0,0.43693947,17.134023,84.81974)">
      <g
         aria-label="Z"
         transform="matrix(1,0,-0.46636624,1,40.637242,-19.562303)"
         style="font-style:italic;font-variant:normal;font-weight:normal;font-stretch:normal;font-size:46.60547256px;line-height:29.1281662px;font-family:'Century Schoolbook L';-inkscape-font-specification:'Century Schoolbook L, Italic';text-align:start;letter-spacing:0px;word-spacing:0px;writing-mode:lr-tb;text-anchor:start;fill:#000000;fill-opacity:1;stroke:none;stroke-width:1.16512668;filter:url(#filter7783)"
         id="g7745">
        <path
           id="path7743"
           style="font-style:normal;font-variant:normal;font-weight:bold;font-stretch:normal;font-size:46.60547256px;font-family:'padmaa-Bold.1.1';-inkscape-font-specification:'padmaa-Bold.1.1, Bold';text-align:start;writing-mode:lr-tb;text-anchor:start;fill:#000000;fill-opacity:1;stroke-width:1.16512668"
           d="m 99.661601,154.66463 -1.183343,10.96867 -26.39763,0 0,-0.72821 17.386025,-28.44572 c -3.701737,0 -5.901539,0.0455 -6.599407,0.13654 -0.667527,0.0607 -1.532277,0.24272 -2.59425,0.54615 -1.486763,0.45513 -2.73079,1.4716 -3.732079,3.04939 -0.515816,0.81923 -1.107487,2.16946 -1.775013,4.05067 l -1.274369,0 0.955777,-9.37571 26.746328,-4.24979 0,0.091 0,0.091 0,0.091 0,0.091 0,0.091 0,0.091 0,0.091 0,0.091 -2.156189,3.55571 -2.156186,3.55572 -2.156186,3.55571 -2.156186,3.55572 -2.156186,3.55571 -2.156186,3.55572 -2.156186,3.55571 -2.156185,3.55572 c 4.369263,0 -1.304711,0.18205 0,0 2.427368,-0.33376 9.906937,2.85406 11.211648,1.61003 1.456421,-1.36539 2.563908,-3.61071 3.32246,-6.73595 z m 5.539379,11.74936 c -5.809169,-1.1272 -9.095511,-5.80265 -8.468794,-12.04848 0.167232,-1.66662 1.006712,-4.42404 1.872514,-6.1506 3.61412,-7.20718 11.42377,-12.72304 19.08815,-13.48171 1.80605,-0.17877 4.64592,-0.01 6.42071,0.38169 4.77836,1.05445 8.4094,4.32942 10.42573,9.40336 0.32263,0.81188 0.32352,0.81249 0.67745,0.46559 3.10679,-3.04514 7.36542,-6.32088 10.10679,-7.77415 2.95554,-1.56681 5.08357,-2.16902 8.81503,-2.49455 5.22347,-0.45571 9.07101,0.92537 11.34453,4.07213 2.0769,2.87462 2.32709,7.70324 0.64417,12.43259 -2.70483,7.60114 -10.20023,13.74732 -18.44947,15.12844 -1.46952,0.24603 -4.28412,0.24344 -5.95956,-0.005 -5.42864,-0.80664 -10.27619,-4.53352 -12.35449,-9.4983 -0.31858,-0.76108 -0.61956,-1.38853 -0.66883,-1.39433 -0.0492,-0.006 -0.4938,0.38649 -0.98783,0.87176 -5.27651,5.18292 -10.82646,8.83349 -14.84478,9.76439 -2.41392,0.55921 -5.73593,0.70129 -7.66149,0.32766 z m 8.16735,-3.37334 c 2.22257,-0.63084 4.49531,-1.87133 7.19347,-3.92626 1.6691,-1.2712 4.69283,-3.96013 6.39791,-5.68953 l 1.00306,-1.01737 -0.64423,-4.12308 c -0.35432,-2.26769 -0.81739,-4.67549 -1.02905,-5.35065 -1.09531,-3.49393 -3.42211,-5.13032 -7.3055,-5.13778 -2.37179,-0.005 -4.18296,0.59086 -6.32174,2.07846 -3.29121,2.28916 -5.82512,5.81893 -7.48356,10.42474 -0.92718,2.57501 -1.17773,4.03798 -1.05363,6.15279 0.30411,5.18259 4.26073,8.00291 9.24327,6.58868 z m 34.53836,-0.003 c 3.34728,-0.95007 6.39117,-3.44846 8.68064,-7.12497 0.81299,-1.30552 1.02262,-1.76967 1.87653,-4.15501 0.78124,-2.18293 1.00511,-2.9845 1.19551,-4.2846 0.4496,-3.06976 0.0758,-5.44568 -1.11006,-7.05572 -0.76454,-1.03803 -2.54031,-2.0808 -4.10343,-2.40961 -1.55176,-0.32644 -2.98357,-0.2203 -4.92643,0.36517 -3.71816,1.12043 -7.4397,3.62824 -12.18242,8.20927 l -1.7112,1.65287 0.67482,3.56431 c 0.80807,4.26803 1.04982,5.26162 1.64978,6.7805 0.84911,2.14965 2.41653,3.72717 4.40028,4.42865 0.93277,0.32984 1.19413,0.36618 2.80638,0.39018 1.11318,0.0166 1.68269,-0.0582 2.7496,-0.36104 z"
           inkscape:connector-curvature="0" />
      </g>
      <flowRoot
         transform="scale(0.26458333,0.26458333)"
         style="font-style:normal;font-variant:normal;font-weight:normal;font-stretch:normal;font-size:40px;line-height:25px;font-family:'League Gothic';-inkscape-font-specification:'League Gothic, Normal';text-align:start;letter-spacing:0px;word-spacing:0px;writing-mode:lr-tb;text-anchor:start;fill:#000000;fill-opacity:1;stroke:none"
         id="flowRoot7396"
         xml:space="preserve"><flowRegion
           id="flowRegion7398"><rect
             y="610.10034"
             x="318.74194"
             height="145.82028"
             width="99.764961"
             id="rect7400" /></flowRegion><flowPara
           id="flowPara7402" /></flowRoot>      <g
         id="g7422"
         style="font-style:italic;font-variant:normal;font-weight:normal;font-stretch:normal;font-size:46.60547256px;line-height:29.1281662px;font-family:'Century Schoolbook L';-inkscape-font-specification:'Century Schoolbook L, Italic';text-align:start;letter-spacing:0px;word-spacing:0px;writing-mode:lr-tb;text-anchor:start;fill:url(#radialGradient7803);fill-opacity:1;stroke:none;stroke-width:1.16512668"
         transform="matrix(1,0,-0.46636624,1,40.637242,-19.562303)"
         aria-label="Z">
        <path
           d="m 99.661601,154.66463 -1.183343,10.96867 -26.39763,0 0,-0.72821 17.386025,-28.44572 c -3.701737,0 -5.901539,0.0455 -6.599407,0.13654 -0.667527,0.0607 -1.532277,0.24272 -2.59425,0.54615 -1.486763,0.45513 -2.73079,1.4716 -3.732079,3.04939 -0.515816,0.81923 -1.107487,2.16946 -1.775013,4.05067 l -1.274369,0 0.955777,-9.37571 26.746328,-4.24979 0,0.091 0,0.091 0,0.091 0,0.091 0,0.091 0,0.091 0,0.091 0,0.091 -2.156189,3.55571 -2.156186,3.55572 -2.156186,3.55571 -2.156186,3.55572 -2.156186,3.55571 -2.156186,3.55572 -2.156186,3.55571 -2.156185,3.55572 c 4.369263,0 -1.304711,0.18205 0,0 2.427368,-0.33376 9.906937,2.85406 11.211648,1.61003 1.456421,-1.36539 2.563908,-3.61071 3.32246,-6.73595 z m 5.539379,11.74936 c -5.809169,-1.1272 -9.095511,-5.80265 -8.468794,-12.04848 0.167232,-1.66662 1.006712,-4.42404 1.872514,-6.1506 3.61412,-7.20718 11.42377,-12.72304 19.08815,-13.48171 1.80605,-0.17877 4.64592,-0.01 6.42071,0.38169 4.77836,1.05445 8.4094,4.32942 10.42573,9.40336 0.32263,0.81188 0.32352,0.81249 0.67745,0.46559 3.10679,-3.04514 7.36542,-6.32088 10.10679,-7.77415 2.95554,-1.56681 5.08357,-2.16902 8.81503,-2.49455 5.22347,-0.45571 9.07101,0.92537 11.34453,4.07213 2.0769,2.87462 2.32709,7.70324 0.64417,12.43259 -2.70483,7.60114 -10.20023,13.74732 -18.44947,15.12844 -1.46952,0.24603 -4.28412,0.24344 -5.95956,-0.005 -5.42864,-0.80664 -10.27619,-4.53352 -12.35449,-9.4983 -0.31858,-0.76108 -0.61956,-1.38853 -0.66883,-1.39433 -0.0492,-0.006 -0.4938,0.38649 -0.98783,0.87176 -5.27651,5.18292 -10.82646,8.83349 -14.84478,9.76439 -2.41392,0.55921 -5.73593,0.70129 -7.66149,0.32766 z m 8.16735,-3.37334 c 2.22257,-0.63084 4.49531,-1.87133 7.19347,-3.92626 1.6691,-1.2712 4.69283,-3.96013 6.39791,-5.68953 l 1.00306,-1.01737 -0.64423,-4.12308 c -0.35432,-2.26769 -0.81739,-4.67549 -1.02905,-5.35065 -1.09531,-3.49393 -3.42211,-5.13032 -7.3055,-5.13778 -2.37179,-0.005 -4.18296,0.59086 -6.32174,2.07846 -3.29121,2.28916 -5.82512,5.81893 -7.48356,10.42474 -0.92718,2.57501 -1.17773,4.03798 -1.05363,6.15279 0.30411,5.18259 4.26073,8.00291 9.24327,6.58868 z m 34.53836,-0.003 c 3.34728,-0.95007 6.39117,-3.44846 8.68064,-7.12497 0.81299,-1.30552 1.02262,-1.76967 1.87653,-4.15501 0.78124,-2.18293 1.00511,-2.9845 1.19551,-4.2846 0.4496,-3.06976 0.0758,-5.44568 -1.11006,-7.05572 -0.76454,-1.03803 -2.54031,-2.0808 -4.10343,-2.40961 -1.55176,-0.32644 -2.98357,-0.2203 -4.92643,0.36517 -3.71816,1.12043 -7.4397,3.62824 -12.18242,8.20927 l -1.7112,1.65287 0.67482,3.56431 c 0.80807,4.26803 1.04982,5.26162 1.64978,6.7805 0.84911,2.14965 2.41653,3.72717 4.40028,4.42865 0.93277,0.32984 1.19413,0.36618 2.80638,0.39018 1.11318,0.0166 1.68269,-0.0582 2.7496,-0.36104 z"
           style="font-style:normal;font-variant:normal;font-weight:bold;font-stretch:normal;font-size:46.60547256px;font-family:'padmaa-Bold.1.1';-inkscape-font-specification:'padmaa-Bold.1.1, Bold';text-align:start;writing-mode:lr-tb;text-anchor:start;fill:url(#radialGradient7805);fill-opacity:1;stroke-width:1.16512668"
           id="path7420"
           inkscape:connector-curvature="0" />
      </g>
    </g>
  </g>
  <g
     id="g7774"
     transform="matrix(0.5008425,0,0,0.5008425,-72.711669,72.057362)">
    <circle
       style="opacity:1;fill:url(#linearGradient7540);fill-opacity:1;stroke:#000000;stroke-width:4;stroke-miterlimit:4;stroke-dasharray:none;stroke-opacity:1"
       id="circle7534"
       cx="215.06096"
       cy="-73.990051"
       r="67.882248" />
    <path
       sodipodi:nodetypes="ssscccccccccsscccccccssssssscccssscccccccsssssssccccccccsccsssccsccsssccccssssccccscccccscccccccscscssssssssssssssssssssccccccccccccccc"
       inkscape:connector-curvature="0"
       id="path7410"
       d="m 206.26808,-112.13422 c -28.50034,0.002 -26.13788,0.67446 -25.80622,11.27685 0.23189,7.413174 0.32163,7.729396 2.2557,8.002855 2.78285,0.393482 3.44193,-1.068614 3.45686,-7.666725 l 0.0131,-5.69444 34.16662,0 34.16662,0 0,20.657165 0,20.655511 -25.09771,0.224087 -25.09769,0.222439 -0.25705,4.498209 c -0.14826,2.590809 0.16262,5.004921 0.73487,5.694438 0.81703,0.984462 5.45217,1.196227 26.1061,1.196227 23.4608,0 25.24228,-0.105918 27.10294,-1.611446 l 1.99208,-1.611448 0.4218,-24.664356 0.41027,-24.001996 c -0.27064,-0.9568 -0.37315,-1.86478 -0.31965,-2.69892 -0.67798,-0.69071 -2.35825,-2.38477 -2.52922,-2.56711 l -1.7795,-1.89815 -35.74017,0 c -5.42713,0 -10.12837,-0.0135 -14.19984,-0.0131 z m 14.14217,1.70043 c 32.53743,0 34.77835,0.0969 36.08782,1.54389 1.23269,1.36211 1.39726,4.45333 1.39726,26.404331 0,18.212733 -0.27176,25.133843 -1.01334,25.875418 -0.74207,0.742082 -7.72381,1.011686 -26.15222,1.011686 l -25.1389,0 0,-3.796292 0,-3.79629 6.75555,0 c 6.38518,0 6.70178,0.08786 5.77188,1.576844 -1.25385,2.007749 -0.38611,4.328497 1.61804,4.328497 2.44193,0 3.55493,-1.617247 2.68574,-3.903392 l -0.76124,-2.001949 17.28763,0 17.28762,0 -0.22574,-22.566841 -0.22408,-22.566852 -34.16662,-0.23397 c -18.79164,-0.12904 -35.02079,-0.0265 -36.06476,0.22738 -1.77134,0.43074 -1.89815,0.91077 -1.89815,7.19385 0,3.926181 -0.35169,6.732484 -0.84363,6.732484 -0.4916,0 -0.84361,-2.796171 -0.84361,-6.701174 0,-5.96841 0.20513,-6.84472 1.87508,-8.0144 1.62318,-1.13692 6.53227,-1.31322 36.56567,-1.31322 z m -33.94749,19.27475 c -6.2801,-0.05501 -12.66817,0.315378 -14.41733,1.153389 l -2.30842,1.107252 -0.22574,21.902822 -0.22572,21.904468 c 1.56409,0.867374 2.97902,2.63273 4.64978,3.008693 0.01,-0.002 0.0294,-0.0075 0.0346,-0.0083 0.002,-3.31e-4 0.005,2.61e-4 0.007,0 0.71005,-0.02093 1.56891,-0.0099 2.3282,-0.0099 0.5335,-0.08752 1.08543,-0.156564 1.67734,-0.187837 1.23302,-0.06515 2.40497,-0.04003 3.62823,0.156531 0.15387,0.02472 0.33343,0.01264 0.49432,0.03131 l 4.65968,0 c 10.51148,0 13.03702,-0.236072 14.12569,-1.324747 1.13694,-1.136939 1.3264,-4.436955 1.3264,-23.179785 l 0,-21.85504 -1.98219,-1.298383 c -1.31997,-0.864888 -7.49133,-1.345549 -13.77142,-1.400545 z m 13.22277,2.619838 0.001,1.917919 c 0.001,1.814425 -0.27325,1.903191 -5.06173,1.63287 -3.66158,-0.206713 -5.06335,-0.615405 -5.06335,-1.476336 0,-1.663021 -7.25379,-1.645557 -8.18577,0.01975 -0.41044,0.733428 -2.34019,1.315424 -4.89365,1.476336 l -4.2148,0.265285 -0.22739,18.348739 -0.22738,18.348741 5.92182,0 c 5.35938,0 5.92182,0.160246 5.92182,1.687241 0,2.252137 3.36972,2.308246 3.95611,0.06591 0.35737,-1.366564 1.34487,-1.664691 6.28596,-1.898146 5.81913,-0.274936 5.86035,-0.261476 5.61371,1.832237 l -0.24881,2.109051 -13.16674,0.232326 c -10.4638,0.184183 -13.36734,-0.0098 -14.14551,-0.947404 -0.69919,-0.842465 -0.91428,-7.180948 -0.753,-22.166454 l 0.22574,-20.9867 14.13064,-0.230679 z m -13.60008,1.835532 c 0.45872,0.0059 0.88758,0.06732 1.17315,0.182897 0.57115,0.231092 -0.10083,0.406068 -1.49281,0.388857 -1.39197,-0.01721 -1.85887,-0.206272 -1.03805,-0.420164 0.41042,-0.106966 0.89898,-0.157251 1.35771,-0.15159 z m -5.83615,3.232777 c 1.76479,0.02236 3.98657,0.140363 6.78191,0.210905 l 9.70164,0.243866 0.22904,16.661499 0.22737,16.6615 -11.26529,0 c -6.19635,0 -11.51948,-0.252534 -11.8288,-0.561864 -0.30933,-0.309322 -0.56188,-7.704462 -0.56188,-16.43412 0,-15.176637 -0.93139,-16.87876 6.71601,-16.781786 z m 40.52673,31.246909 c -6.97404,0 -7.79381,0.164589 -8.1808,1.644401 -0.33497,1.280903 -1.29683,1.700654 -4.34992,1.898146 -3.36962,0.217966 -3.95969,0.530105 -4.19833,2.214503 -0.1527,1.077725 -0.0696,2.501334 0.18453,3.163575 0.37894,0.987492 3.46468,1.201914 17.15088,1.191285 9.17838,-0.0071 17.19279,-0.333749 17.80994,-0.724987 0.63732,-0.404026 1.00177,-1.764891 0.84361,-3.150394 -0.26978,-2.363301 -0.4395,-2.447925 -5.4621,-2.689039 -4.31746,-0.207253 -5.25779,-0.52459 -5.617,-1.898147 -0.38849,-1.485649 -1.19922,-1.649343 -8.18081,-1.649343 z m 0,1.687241 c 5.56734,0 5.99831,0.134676 6.74896,2.10905 0.73286,1.927546 1.23872,2.109052 5.88393,2.109052 2.82598,0 5.08314,0.374558 5.08314,0.84362 0,0.533573 -6.04595,0.84362 -16.45059,0.84362 -10.40465,0 -16.4506,-0.310047 -16.4506,-0.84362 0,-0.463992 1.71827,-0.84362 3.8177,-0.84362 3.29542,0 3.92624,-0.288282 4.6185,-2.109052 0.75065,-1.974374 1.18162,-2.10905 6.74896,-2.10905 z m -46.73853,8.493872 c -0.002,6.62e-4 -0.005,9.27e-4 -0.007,0.0017 0.005,0.0028 0.008,0.0037 0.0131,0.0066 0.007,3.95e-4 -0.005,-0.0064 -0.007,-0.0083 z m 0.0643,0.04943 c 0.01,0.0084 0.0108,0.01168 0.0247,0.02307 0.0134,0.01108 0.012,0.0077 0.0264,0.01978 8.4e-4,-8.2e-5 0.002,8.1e-5 0.004,0 -5.9e-4,-8.18e-4 -0.002,-0.0042 -0.004,-0.0049 -0.007,-0.0051 -0.0142,-0.01157 -0.0214,-0.01648 -0.0109,-0.0049 -0.021,-0.01508 -0.0298,-0.02142 z m 6.06847,6.101417 c -0.0131,0.01535 -0.0264,0.03081 -0.0396,0.04614 0.0182,-0.01048 0.0363,-0.02084 0.0545,-0.03131 z"
       style="fill:#000000" />
    <path
       id="path7693"
       d="m 260.51758,-107.65625 -0.51367,51.365234 -4.03125,2.78711 -48.4375,0 -3.09961,-1.291016 -2.55664,-0.125 -0.72852,10.898438 -1.39258,1.123046 -2.95312,0.394532 -24.625,-0.394532 -2.89453,-2.193359 38.44336,38.560547 a 67.882248,67.882248 0 0 0 7.33203,0.4238281 67.882248,67.882248 0 0 0 67.88281,-67.8828121 67.882248,67.882248 0 0 0 -1.1875,-12.427735 l -21.23828,-21.238281 z"
       style="opacity:0.39300005;fill:url(#linearGradient7704);fill-opacity:1;fill-rule:evenodd;stroke:none;stroke-width:1px;stroke-linecap:butt;stroke-linejoin:miter;stroke-opacity:1"
       inkscape:connector-curvature="0" />
  </g>
  <g
     id="g7769"
     transform="matrix(0.5008425,0,0,0.5008425,-153.89192,72.057362)">
    <circle
       r="67.882248"
       cy="-73.990051"
       cx="52.426407"
       id="path7506"
       style="opacity:1;fill:url(#linearGradient7514);fill-opacity:1;stroke:#000000;stroke-width:4;stroke-miterlimit:4;stroke-dasharray:none;stroke-opacity:1" />
    <path
       inkscape:connector-curvature="0"
       id="path7412"
       d="m 78.43522,-102.81329 c -0.929877,0 -2.100223,1.09508 -15.828124,14.787107 -8.154225,8.132862 -15.125418,14.93865 -15.492188,15.125 -0.445853,0.226529 -0.840721,0.24313 -1.1875,0.05078 -0.285264,-0.158228 -2.716499,-2.495142 -5.404297,-5.195313 -6.618164,-6.648616 -5.335347,-6.803984 -13.830078,1.660157 -3.626937,3.613885 -6.75031,6.948805 -6.941406,7.410156 -0.264738,0.638615 -0.264302,1.036534 -0.002,1.669922 0.189529,0.457569 6.043446,6.526971 13.009765,13.486328 11.821671,11.809849 12.735289,12.652344 13.695313,12.652344 0.967398,0 2.389986,-1.360081 23.923828,-22.892578 21.730027,-21.728665 22.896484,-22.948851 22.896484,-23.947266 0,-0.97857 -0.481644,-1.532688 -6.916015,-7.929688 -6.294181,-6.257609 -7.010022,-6.876949 -7.923829,-6.876949 z m -0.05078,0.93945 c 0.643696,-0.0835 1.778626,0.92139 7.527344,6.666016 3.723123,3.72048 6.769531,6.965621 6.769531,7.212891 0,0.247281 -10.303498,10.752708 -22.898437,23.34375 -12.594941,12.591035 -22.965885,22.885317 -23.044923,22.875 -0.779757,-0.10194 -2.993571,-2.195094 -13.849609,-13.080078 -9.814929,-9.84111 -12.523438,-12.715788 -12.523438,-13.296875 0,-0.572325 1.541231,-2.276009 6.757813,-7.47461 4.098558,-4.084429 6.979976,-6.734375 7.324218,-6.734375 0.338847,0 2.669258,2.088995 5.783204,5.185547 4.643425,4.617505 5.324161,5.1875 6.195312,5.1875 0.893671,0 2.288773,-1.29126 16.089844,-14.892578 10.748168,-10.592599 15.33005,-14.922268 15.86914,-14.992188 z"
       style="fill:#000000;stroke:#000000;stroke-width:1.46399999;stroke-miterlimit:4;stroke-dasharray:none;stroke-opacity:1" />
    <path
       id="path7716"
       d="m 94.25,-88.298828 c 0,0 -47.875,46.125 -47.625,47.375 0.25,1.25 -2.185547,-0.314453 -2.185547,-0.314453 l 31.033203,31.033203 A 67.882248,67.882248 0 0 0 119.39062,-63.382812 L 94.25,-88.298828 Z"
       style="opacity:0.41300001;fill:url(#linearGradient7727);fill-opacity:1;fill-rule:evenodd;stroke:none;stroke-width:1px;stroke-linecap:butt;stroke-linejoin:miter;stroke-opacity:1"
       inkscape:connector-curvature="0" />
  </g>
  <g
     id="g7763"
     transform="matrix(0.5008425,0,0,0.5008425,-233.66035,74.175112)">
    <circle
       r="67.882248"
       cy="-69.747414"
       cx="-107.37972"
       id="circle7536"
       style="opacity:1;fill:url(#linearGradient7538);fill-opacity:1;stroke:#000000;stroke-width:4;stroke-miterlimit:4;stroke-dasharray:none;stroke-opacity:1" />
    <path
       inkscape:connector-curvature="0"
       id="path7414"
       d="m -104.84288,-111.32254 c -5.41668,0.006 -10.10347,0.27424 -10.41637,0.59871 -0.58075,0.60224 -18.32736,45.90508 -18.32736,46.785373 0,0.2663 5.45815,0.483846 12.12923,0.483846 6.67106,0 12.12922,0.114757 12.12922,0.254127 0,0.139368 -1.81939,7.93409 -4.04307,17.322336 -2.22369,9.388238 -4.04308,17.214041 -4.04308,17.389811 0,0.175771 0.48247,0.318735 1.07251,0.318735 1.20601,0 34.228454,-48.695045 34.771005,-51.273526 l 0.347447,-1.653985 -10.822684,0 c -8.372498,0 -10.736508,-0.20807 -10.440778,-0.91888 0.21026,-0.505384 2.890917,-6.86969 5.958358,-14.143578 3.067455,-7.273899 5.577895,-13.641739 5.577895,-14.150759 0,-1.02581 0.0029,-1.02552 -13.892323,-1.01221 z m 11.681269,1.51616 -1.401297,3.51184 c -0.770682,1.93156 -3.414759,8.308404 -5.876522,14.170863 -2.46176,5.862457 -4.47618,11.063216 -4.47667,11.557795 -6.5e-4,0.658455 2.86421,0.953695 10.700654,1.102657 l 10.702079,0.203874 -12.402009,18.377606 c -6.820564,10.107684 -13.621404,20.192337 -15.112714,22.410633 -1.49134,2.218294 -2.7107,3.790021 -2.7107,3.491745 0,-0.298275 1.48858,-6.863521 3.30797,-14.588659 1.81938,-7.725146 3.30797,-14.340092 3.30797,-14.700654 0,-0.360561 -5.41248,-0.656138 -12.02728,-0.656138 l -12.02728,0 8.67624,-22.236906 8.6748,-22.236906 10.33309,-0.20387 10.331669,-0.20388 z"
       style="fill:#000000;stroke:#000000;stroke-width:0.43564776;stroke-miterlimit:4;stroke-dasharray:none;stroke-opacity:1" />
    <path
       id="path7731"
       d="m -90.863281,-110.78125 -11.402339,28.726562 0.17773,0.707032 20.865234,0.25 -0.09375,1.871094 -36.416014,50.824218 24.820311,24.8906252 A 67.882248,67.882248 0 0 0 -40.21875,-60.439453 l -50.644531,-50.341797 z"
       style="opacity:0.38000039;fill:url(#linearGradient7739);fill-opacity:1;fill-rule:evenodd;stroke:none;stroke-width:1px;stroke-linecap:butt;stroke-linejoin:miter;stroke-opacity:1"
       inkscape:connector-curvature="0" />
    <path
       sodipodi:nodetypes="cccc"
       inkscape:connector-curvature="0"
       id="path7747"
       d="m -133.75,-63.674138 20.5,20.749999 4.375,-20.374999 z"
       style="opacity:0.38600003;fill:url(#linearGradient7755);fill-opacity:1;fill-rule:evenodd;stroke:none;stroke-width:1px;stroke-linecap:butt;stroke-linejoin:miter;stroke-opacity:1" />
  </g>
</svg>
