<?xml version="1.0" encoding="UTF-8" standalone="no"?>
<!-- Created with Inkscape (http://www.inkscape.org/) -->

<svg
   xmlns:dc="http://purl.org/dc/elements/1.1/"
   xmlns:cc="http://creativecommons.org/ns#"
   xmlns:rdf="http://www.w3.org/1999/02/22-rdf-syntax-ns#"
   xmlns:svg="http://www.w3.org/2000/svg"
   xmlns="http://www.w3.org/2000/svg"
   xmlns:xlink="http://www.w3.org/1999/xlink"
   xmlns:sodipodi="http://sodipodi.sourceforge.net/DTD/sodipodi-0.dtd"
   xmlns:inkscape="http://www.inkscape.org/namespaces/inkscape"
   width="39.444645mm"
   height="39.444645mm"
   viewBox="0 0 139.76449 139.76449"
   id="svg7626"
   version="1.1"
   inkscape:version="0.91 r13725"
   sodipodi:docname="wp.svg">
  <defs
     id="defs7628">
    <linearGradient
       inkscape:collect="always"
       id="linearGradient7757">
      <stop
         style="stop-color:#000000;stop-opacity:1"
         offset="0"
         id="stop7759" />
      <stop
         style="stop-color:#000000;stop-opacity:0.51434879"
         offset="1"
         id="stop7761" />
    </linearGradient>
    <inkscape:perspective
       id="perspective7532"
       inkscape:persp3d-origin="58.13781 : 38.73362 : 1"
       inkscape:vp_z="116.27562 : 58.100429 : 1"
       inkscape:vp_y="0 : 1000 : 0"
       inkscape:vp_x="0 : 58.10043 : 1"
       sodipodi:type="inkscape:persp3d" />
    <linearGradient
       id="linearGradient7516">
      <stop
         id="stop7518"
         offset="0"
         style="stop-color:#ffd668;stop-opacity:1" />
      <stop
         id="stop7520"
         offset="1"
         style="stop-color:#d05d00;stop-opacity:1" />
    </linearGradient>
    <linearGradient
       id="linearGradient7876">
      <stop
         style="stop-color:#e2a500;stop-opacity:1"
         offset="0"
         id="stop7872" />
      <stop
         style="stop-color:#ff7200;stop-opacity:1"
         offset="1"
         id="stop7874" />
    </linearGradient>
    <linearGradient
       id="linearGradient7799">
      <stop
         id="stop7795"
         offset="0"
         style="stop-color:#00d6d0;stop-opacity:1" />
      <stop
         id="stop7797"
         offset="1"
         style="stop-color:#ff7200;stop-opacity:1" />
    </linearGradient>
    <filter
       height="1.1988784"
       y="-0.099439204"
       width="1.0611815"
       x="-0.030590801"
       id="filter7783"
       style="color-interpolation-filters:sRGB">
      <feGaussianBlur
         id="feGaussianBlur7785"
         stdDeviation="1.4918295" />
    </filter>
    <radialGradient
       gradientUnits="userSpaceOnUse"
       gradientTransform="matrix(-1.8665385,-1.4192561,1.7670177,0.56365853,106.17622,250.75607)"
       r="47.577202"
       fy="153.427"
       fx="131.61674"
       cy="153.427"
       cx="131.61674"
       id="radialGradient7803"
       xlink:href="#linearGradient7799" />
    <radialGradient
       r="47.577202"
       fy="153.427"
       fx="131.61674"
       cy="153.427"
       cx="131.61674"
       gradientTransform="matrix(-1.8665385,-1.4192561,1.7670177,0.56365853,106.17622,250.75607)"
       gradientUnits="userSpaceOnUse"
       id="radialGradient7805"
       xlink:href="#linearGradient7876" />
    <linearGradient
       gradientUnits="userSpaceOnUse"
       y2="-7.5220156"
       x2="118.06601"
       y1="-137.62965"
       x1="-14.627414"
       id="linearGradient7514"
       xlink:href="#linearGradient7516"
       inkscape:collect="always"
       gradientTransform="translate(-87.442496,467.28329)" />
    <linearGradient
       gradientTransform="translate(-247.24863,471.52593)"
       y2="-7.5220156"
       x2="118.06601"
       y1="-137.62965"
       x1="-14.627414"
       gradientUnits="userSpaceOnUse"
       id="linearGradient7538"
       xlink:href="#linearGradient7516"
       inkscape:collect="always" />
    <linearGradient
       gradientTransform="translate(75.192064,467.28329)"
       y2="-7.5220156"
       x2="118.06601"
       y1="-137.62965"
       x1="-14.627414"
       gradientUnits="userSpaceOnUse"
       id="linearGradient7540"
       xlink:href="#linearGradient7516"
       inkscape:collect="always" />
    <linearGradient
       gradientUnits="userSpaceOnUse"
       y2="-5.8818374"
       x2="281.94336"
       y1="-105.88184"
       x1="171.78516"
       id="linearGradient7704"
       xlink:href="#linearGradient7757"
       inkscape:collect="always"
       gradientTransform="translate(-87.442496,467.28329)" />
    <linearGradient
       gradientUnits="userSpaceOnUse"
       y2="-11.775294"
       x2="117.26929"
       y1="-88.84993"
       x1="44.439453"
       id="linearGradient7727"
       xlink:href="#linearGradient7757"
       inkscape:collect="always"
       gradientTransform="translate(-87.442496,467.28329)" />
    <linearGradient
       gradientUnits="userSpaceOnUse"
       y2="-48.41478"
       x2="-27.249998"
       y1="-48.41478"
       x1="-117.73328"
       id="linearGradient7739"
       xlink:href="#linearGradient7757"
       inkscape:collect="always"
       gradientTransform="translate(-87.442496,467.28329)" />
    <linearGradient
       gradientUnits="userSpaceOnUse"
       y2="-42.549137"
       x2="-113.125"
       y1="-63.549137"
       x1="-133.875"
       id="linearGradient7755"
       xlink:href="#linearGradient7757"
       inkscape:collect="always"
       gradientTransform="translate(-87.442496,467.28329)" />
    <linearGradient
       inkscape:collect="always"
       xlink:href="#linearGradient7516"
       id="linearGradient7848"
       gradientUnits="userSpaceOnUse"
       gradientTransform="translate(755.44131,487.8361)"
       x1="-14.627414"
       y1="-137.62965"
       x2="118.06601"
       y2="-7.5220156" />
    <linearGradient
       inkscape:collect="always"
       xlink:href="#linearGradient7757"
       id="linearGradient7965"
       x1="619.72815"
       y1="-103.33749"
       x2="517.15997"
       y2="-200.34319"
       gradientUnits="userSpaceOnUse" />
  </defs>
  <sodipodi:namedview
     id="base"
     pagecolor="#ffffff"
     bordercolor="#666666"
     borderopacity="1.0"
     inkscape:pageopacity="0.0"
     inkscape:pageshadow="2"
     inkscape:zoom="0.35"
     inkscape:cx="103.55541"
     inkscape:cy="171.64671"
     inkscape:document-units="px"
     inkscape:current-layer="layer1"
     showgrid="false"
     fit-margin-top="0"
     fit-margin-left="0"
     fit-margin-right="0"
     fit-margin-bottom="0"
     inkscape:window-width="1920"
     inkscape:window-height="1024"
     inkscape:window-x="0"
     inkscape:window-y="27"
     inkscape:window-maximized="1"
     showguides="true"
     inkscape:guide-bbox="true"
     inkscape:snap-global="true"
     inkscape:object-nodes="true"
     inkscape:snap-smooth-nodes="true" />
  <metadata
     id="metadata7631">
    <rdf:RDF>
      <cc:Work
         rdf:about="">
        <dc:format>image/svg+xml</dc:format>
        <dc:type
           rdf:resource="http://purl.org/dc/dcmitype/StillImage" />
        <dc:title></dc:title>
      </cc:Work>
    </rdf:RDF>
  </metadata>
  <g
     inkscape:label="Layer 1"
     inkscape:groupmode="layer"
     id="layer1"
     transform="translate(-737.98549,-343.96382)">
    <circle
       style="opacity:1;fill:url(#linearGradient7514);fill-opacity:1;stroke:#000000;stroke-width:4;stroke-miterlimit:4;stroke-dasharray:none;stroke-opacity:1"
       id="path7506"
       cx="-35.01609"
       cy="393.29324"
       r="67.882248" />
    <g
       id="layer1-8"
       inkscape:label="Layer 1"
       transform="translate(212.08471,23.9543)" />
    <path
       style="fill:#000000;stroke:#000000;stroke-width:1.46399999;stroke-miterlimit:4;stroke-dasharray:none;stroke-opacity:1"
       d="m -9.007276,364.47 c -0.929877,0 -2.100223,1.09508 -15.828124,14.78711 -8.154225,8.13286 -15.125418,14.93865 -15.492188,15.125 -0.445853,0.22653 -0.840721,0.24313 -1.1875,0.0508 -0.285264,-0.15823 -2.716499,-2.49514 -5.404297,-5.19532 -6.618164,-6.64861 -5.335347,-6.80398 -13.830078,1.66016 -3.626937,3.61389 -6.75031,6.94881 -6.941406,7.41016 -0.264738,0.63861 -0.264302,1.03653 -0.002,1.66992 0.189529,0.45757 6.043446,6.52697 13.009765,13.48633 11.821671,11.80985 12.735289,12.65234 13.695313,12.65234 0.967398,0 2.389986,-1.36008 23.923828,-22.89258 21.730027,-21.72866 22.896484,-22.94885 22.896484,-23.94726 0,-0.97857 -0.481644,-1.53269 -6.916015,-7.92969 C -7.377675,365.08934 -8.093516,364.47 -9.007323,364.47 Z m -0.05078,0.93945 c 0.643696,-0.0835 1.778626,0.92139 7.527344,6.66602 3.723123,3.72048 6.769531,6.96562 6.769531,7.21289 0,0.24728 -10.303498,10.7527 -22.898437,23.34375 -12.594941,12.59103 -22.965885,22.88531 -23.044923,22.875 -0.779757,-0.10194 -2.993571,-2.1951 -13.849609,-13.08008 -9.814929,-9.84111 -12.523438,-12.71579 -12.523438,-13.29688 0,-0.57232 1.541231,-2.276 6.757813,-7.47461 4.098558,-4.08442 6.979976,-6.73437 7.324218,-6.73437 0.338847,0 2.669258,2.08899 5.783204,5.18555 4.643425,4.6175 5.324161,5.1875 6.195312,5.1875 0.893671,0 2.288773,-1.29126 16.089844,-14.89258 10.748168,-10.5926 15.33005,-14.92227 15.86914,-14.99219 z"
       id="path7412"
       inkscape:connector-curvature="0" />
    <g
       id="layer1-4"
       transform="matrix(3.5433071,0,0,3.5433068,149.39028,-117.68431)">
      <g
         id="g7905"
         transform="matrix(0.43693947,0,0,0.43693947,17.134023,84.81974)">
        <g
           aria-label="Z"
           transform="matrix(1,0,-0.46636624,1,40.637242,-19.562303)"
           style="font-style:italic;font-variant:normal;font-weight:normal;font-stretch:normal;font-size:46.60547256px;line-height:29.1281662px;font-family:'Century Schoolbook L';-inkscape-font-specification:'Century Schoolbook L, Italic';text-align:start;letter-spacing:0px;word-spacing:0px;writing-mode:lr-tb;text-anchor:start;fill:#000000;fill-opacity:1;stroke:none;stroke-width:1.16512668;filter:url(#filter7783)"
           id="g7745">
          <path
             id="path7743"
             style="font-style:normal;font-variant:normal;font-weight:bold;font-stretch:normal;font-size:46.60547256px;font-family:'padmaa-Bold.1.1';-inkscape-font-specification:'padmaa-Bold.1.1, Bold';text-align:start;writing-mode:lr-tb;text-anchor:start;fill:#000000;fill-opacity:1;stroke-width:1.16512668"
             d="m 99.661601,154.66463 -1.183343,10.96867 -26.39763,0 0,-0.72821 17.386025,-28.44572 c -3.701737,0 -5.901539,0.0455 -6.599407,0.13654 -0.667527,0.0607 -1.532277,0.24272 -2.59425,0.54615 -1.486763,0.45513 -2.73079,1.4716 -3.732079,3.04939 -0.515816,0.81923 -1.107487,2.16946 -1.775013,4.05067 l -1.274369,0 0.955777,-9.37571 26.746328,-4.24979 0,0.091 0,0.091 0,0.091 0,0.091 0,0.091 0,0.091 0,0.091 0,0.091 -2.156189,3.55571 -2.156186,3.55572 -2.156186,3.55571 -2.156186,3.55572 -2.156186,3.55571 -2.156186,3.55572 -2.156186,3.55571 -2.156185,3.55572 c 4.369263,0 -1.304711,0.18205 0,0 2.427368,-0.33376 9.906937,2.85406 11.211648,1.61003 1.456421,-1.36539 2.563908,-3.61071 3.32246,-6.73595 z m 5.539379,11.74936 c -5.809169,-1.1272 -9.095511,-5.80265 -8.468794,-12.04848 0.167232,-1.66662 1.006712,-4.42404 1.872514,-6.1506 3.61412,-7.20718 11.42377,-12.72304 19.08815,-13.48171 1.80605,-0.17877 4.64592,-0.01 6.42071,0.38169 4.77836,1.05445 8.4094,4.32942 10.42573,9.40336 0.32263,0.81188 0.32352,0.81249 0.67745,0.46559 3.10679,-3.04514 7.36542,-6.32088 10.10679,-7.77415 2.95554,-1.56681 5.08357,-2.16902 8.81503,-2.49455 5.22347,-0.45571 9.07101,0.92537 11.34453,4.07213 2.0769,2.87462 2.32709,7.70324 0.64417,12.43259 -2.70483,7.60114 -10.20023,13.74732 -18.44947,15.12844 -1.46952,0.24603 -4.28412,0.24344 -5.95956,-0.005 -5.42864,-0.80664 -10.27619,-4.53352 -12.35449,-9.4983 -0.31858,-0.76108 -0.61956,-1.38853 -0.66883,-1.39433 -0.0492,-0.006 -0.4938,0.38649 -0.98783,0.87176 -5.27651,5.18292 -10.82646,8.83349 -14.84478,9.76439 -2.41392,0.55921 -5.73593,0.70129 -7.66149,0.32766 z m 8.16735,-3.37334 c 2.22257,-0.63084 4.49531,-1.87133 7.19347,-3.92626 1.6691,-1.2712 4.69283,-3.96013 6.39791,-5.68953 l 1.00306,-1.01737 -0.64423,-4.12308 c -0.35432,-2.26769 -0.81739,-4.67549 -1.02905,-5.35065 -1.09531,-3.49393 -3.42211,-5.13032 -7.3055,-5.13778 -2.37179,-0.005 -4.18296,0.59086 -6.32174,2.07846 -3.29121,2.28916 -5.82512,5.81893 -7.48356,10.42474 -0.92718,2.57501 -1.17773,4.03798 -1.05363,6.15279 0.30411,5.18259 4.26073,8.00291 9.24327,6.58868 z m 34.53836,-0.003 c 3.34728,-0.95007 6.39117,-3.44846 8.68064,-7.12497 0.81299,-1.30552 1.02262,-1.76967 1.87653,-4.15501 0.78124,-2.18293 1.00511,-2.9845 1.19551,-4.2846 0.4496,-3.06976 0.0758,-5.44568 -1.11006,-7.05572 -0.76454,-1.03803 -2.54031,-2.0808 -4.10343,-2.40961 -1.55176,-0.32644 -2.98357,-0.2203 -4.92643,0.36517 -3.71816,1.12043 -7.4397,3.62824 -12.18242,8.20927 l -1.7112,1.65287 0.67482,3.56431 c 0.80807,4.26803 1.04982,5.26162 1.64978,6.7805 0.84911,2.14965 2.41653,3.72717 4.40028,4.42865 0.93277,0.32984 1.19413,0.36618 2.80638,0.39018 1.11318,0.0166 1.68269,-0.0582 2.7496,-0.36104 z"
             inkscape:connector-curvature="0" />
        </g>
        <flowRoot
           transform="scale(0.26458333,0.26458333)"
           style="font-style:normal;font-variant:normal;font-weight:normal;font-stretch:normal;font-size:40px;line-height:25px;font-family:'League Gothic';-inkscape-font-specification:'League Gothic, Normal';text-align:start;letter-spacing:0px;word-spacing:0px;writing-mode:lr-tb;text-anchor:start;fill:#000000;fill-opacity:1;stroke:none"
           id="flowRoot7396"
           xml:space="preserve"><flowRegion
             id="flowRegion7398"><rect
               y="610.10034"
               x="318.74194"
               height="145.82028"
               width="99.764961"
               id="rect7400" /></flowRegion><flowPara
             id="flowPara7402" /></flowRoot>        <g
           id="g7422"
           style="font-style:italic;font-variant:normal;font-weight:normal;font-stretch:normal;font-size:46.60547256px;line-height:29.1281662px;font-family:'Century Schoolbook L';-inkscape-font-specification:'Century Schoolbook L, Italic';text-align:start;letter-spacing:0px;word-spacing:0px;writing-mode:lr-tb;text-anchor:start;fill:url(#radialGradient7803);fill-opacity:1;stroke:none;stroke-width:1.16512668"
           transform="matrix(1,0,-0.46636624,1,40.637242,-19.562303)"
           aria-label="Z">
          <path
             d="m 99.661601,154.66463 -1.183343,10.96867 -26.39763,0 0,-0.72821 17.386025,-28.44572 c -3.701737,0 -5.901539,0.0455 -6.599407,0.13654 -0.667527,0.0607 -1.532277,0.24272 -2.59425,0.54615 -1.486763,0.45513 -2.73079,1.4716 -3.732079,3.04939 -0.515816,0.81923 -1.107487,2.16946 -1.775013,4.05067 l -1.274369,0 0.955777,-9.37571 26.746328,-4.24979 0,0.091 0,0.091 0,0.091 0,0.091 0,0.091 0,0.091 0,0.091 0,0.091 -2.156189,3.55571 -2.156186,3.55572 -2.156186,3.55571 -2.156186,3.55572 -2.156186,3.55571 -2.156186,3.55572 -2.156186,3.55571 -2.156185,3.55572 c 4.369263,0 -1.304711,0.18205 0,0 2.427368,-0.33376 9.906937,2.85406 11.211648,1.61003 1.456421,-1.36539 2.563908,-3.61071 3.32246,-6.73595 z m 5.539379,11.74936 c -5.809169,-1.1272 -9.095511,-5.80265 -8.468794,-12.04848 0.167232,-1.66662 1.006712,-4.42404 1.872514,-6.1506 3.61412,-7.20718 11.42377,-12.72304 19.08815,-13.48171 1.80605,-0.17877 4.64592,-0.01 6.42071,0.38169 4.77836,1.05445 8.4094,4.32942 10.42573,9.40336 0.32263,0.81188 0.32352,0.81249 0.67745,0.46559 3.10679,-3.04514 7.36542,-6.32088 10.10679,-7.77415 2.95554,-1.56681 5.08357,-2.16902 8.81503,-2.49455 5.22347,-0.45571 9.07101,0.92537 11.34453,4.07213 2.0769,2.87462 2.32709,7.70324 0.64417,12.43259 -2.70483,7.60114 -10.20023,13.74732 -18.44947,15.12844 -1.46952,0.24603 -4.28412,0.24344 -5.95956,-0.005 -5.42864,-0.80664 -10.27619,-4.53352 -12.35449,-9.4983 -0.31858,-0.76108 -0.61956,-1.38853 -0.66883,-1.39433 -0.0492,-0.006 -0.4938,0.38649 -0.98783,0.87176 -5.27651,5.18292 -10.82646,8.83349 -14.84478,9.76439 -2.41392,0.55921 -5.73593,0.70129 -7.66149,0.32766 z m 8.16735,-3.37334 c 2.22257,-0.63084 4.49531,-1.87133 7.19347,-3.92626 1.6691,-1.2712 4.69283,-3.96013 6.39791,-5.68953 l 1.00306,-1.01737 -0.64423,-4.12308 c -0.35432,-2.26769 -0.81739,-4.67549 -1.02905,-5.35065 -1.09531,-3.49393 -3.42211,-5.13032 -7.3055,-5.13778 -2.37179,-0.005 -4.18296,0.59086 -6.32174,2.07846 -3.29121,2.28916 -5.82512,5.81893 -7.48356,10.42474 -0.92718,2.57501 -1.17773,4.03798 -1.05363,6.15279 0.30411,5.18259 4.26073,8.00291 9.24327,6.58868 z m 34.53836,-0.003 c 3.34728,-0.95007 6.39117,-3.44846 8.68064,-7.12497 0.81299,-1.30552 1.02262,-1.76967 1.87653,-4.15501 0.78124,-2.18293 1.00511,-2.9845 1.19551,-4.2846 0.4496,-3.06976 0.0758,-5.44568 -1.11006,-7.05572 -0.76454,-1.03803 -2.54031,-2.0808 -4.10343,-2.40961 -1.55176,-0.32644 -2.98357,-0.2203 -4.92643,0.36517 -3.71816,1.12043 -7.4397,3.62824 -12.18242,8.20927 l -1.7112,1.65287 0.67482,3.56431 c 0.80807,4.26803 1.04982,5.26162 1.64978,6.7805 0.84911,2.14965 2.41653,3.72717 4.40028,4.42865 0.93277,0.32984 1.19413,0.36618 2.80638,0.39018 1.11318,0.0166 1.68269,-0.0582 2.7496,-0.36104 z"
             style="font-style:normal;font-variant:normal;font-weight:bold;font-stretch:normal;font-size:46.60547256px;font-family:'padmaa-Bold.1.1';-inkscape-font-specification:'padmaa-Bold.1.1, Bold';text-align:start;writing-mode:lr-tb;text-anchor:start;fill:url(#radialGradient7805);fill-opacity:1;stroke-width:1.16512668"
             id="path7420"
             inkscape:connector-curvature="0" />
        </g>
      </g>
    </g>
    <circle
       r="67.882248"
       cy="393.29324"
       cx="127.61846"
       id="circle7534"
       style="opacity:1;fill:url(#linearGradient7540);fill-opacity:1;stroke:#000000;stroke-width:4;stroke-miterlimit:4;stroke-dasharray:none;stroke-opacity:1" />
    <circle
       style="opacity:1;fill:url(#linearGradient7538);fill-opacity:1;stroke:#000000;stroke-width:4;stroke-miterlimit:4;stroke-dasharray:none;stroke-opacity:1"
       id="circle7536"
       cx="-194.82222"
       cy="397.53589"
       r="67.882248" />
    <path
       style="fill:#000000;stroke:#000000;stroke-width:0.43564776;stroke-miterlimit:4;stroke-dasharray:none;stroke-opacity:1"
       d="m -192.28538,355.96075 c -5.41668,0.006 -10.10347,0.27424 -10.41637,0.59871 -0.58075,0.60224 -18.32736,45.90508 -18.32736,46.78537 0,0.2663 5.45815,0.48385 12.12923,0.48385 6.67106,0 12.12922,0.11476 12.12922,0.25413 0,0.13936 -1.81939,7.93409 -4.04307,17.32233 -2.22369,9.38824 -4.04308,17.21404 -4.04308,17.38981 0,0.17577 0.48247,0.31874 1.07251,0.31874 1.20601,0 34.22846,-48.69505 34.77101,-51.27353 l 0.34745,-1.65398 -10.82269,0 c -8.3725,0 -10.73651,-0.20807 -10.44078,-0.91888 0.21026,-0.50539 2.89092,-6.86969 5.95836,-14.14358 3.06746,-7.2739 5.5779,-13.64174 5.5779,-14.15076 0,-1.02581 0.003,-1.02552 -13.89233,-1.01221 z m 11.68127,1.51616 -1.40129,3.51184 c -0.77069,1.93156 -3.41476,8.3084 -5.87653,14.17086 -2.46176,5.86246 -4.47618,11.06322 -4.47667,11.5578 -6.5e-4,0.65845 2.86421,0.95369 10.70066,1.10265 l 10.70208,0.20388 -12.40201,18.3776 c -6.82057,10.10769 -13.62141,20.19234 -15.11272,22.41064 -1.49134,2.21829 -2.7107,3.79002 -2.7107,3.49174 0,-0.29827 1.48858,-6.86352 3.30797,-14.58866 1.81938,-7.72514 3.30797,-14.34009 3.30797,-14.70065 0,-0.36056 -5.41248,-0.65614 -12.02728,-0.65614 l -12.02728,0 8.67624,-22.2369 8.6748,-22.23691 10.33309,-0.20387 10.33167,-0.20388 z"
       id="path7414"
       inkscape:connector-curvature="0" />
    <path
       style="fill:#000000"
       d="m 118.82558,355.14907 c -28.500336,0.002 -26.137876,0.67446 -25.806216,11.27685 0.23189,7.41317 0.32163,7.7294 2.2557,8.00286 2.78285,0.39348 3.44193,-1.06862 3.45686,-7.66673 l 0.0131,-5.69444 34.166616,0 34.16662,0 0,20.65717 0,20.65551 -25.09771,0.22408 -25.09769,0.22244 -0.25705,4.49821 c -0.14826,2.59081 0.16262,5.00492 0.73487,5.69444 0.81703,0.98446 5.45217,1.19623 26.1061,1.19623 23.4608,0 25.24228,-0.10592 27.10294,-1.61145 l 1.99208,-1.61145 0.4218,-24.66435 0.41027,-24.002 c -0.27064,-0.9568 -0.37315,-1.86478 -0.31965,-2.69892 -0.67798,-0.69071 -2.35825,-2.38477 -2.52922,-2.56711 l -1.7795,-1.89815 -35.74017,0 c -5.42713,0 -10.12837,-0.0135 -14.19984,-0.0131 z m 14.14217,1.70043 c 32.53743,0 34.77835,0.0969 36.08782,1.54389 1.23269,1.36211 1.39726,4.45333 1.39726,26.40433 0,18.21273 -0.27176,25.13384 -1.01334,25.87542 -0.74207,0.74208 -7.72381,1.01169 -26.15222,1.01169 l -25.1389,0 0,-3.7963 0,-3.79629 6.75555,0 c 6.38518,0 6.70178,0.0879 5.77188,1.57685 -1.25385,2.00775 -0.38611,4.32849 1.61804,4.32849 2.44193,0 3.55493,-1.61724 2.68574,-3.90339 l -0.76124,-2.00195 17.28763,0 17.28762,0 -0.22574,-22.56684 -0.22408,-22.56685 -34.16662,-0.23397 c -18.79164,-0.12904 -35.020786,-0.0265 -36.064756,0.22738 -1.77134,0.43074 -1.89815,0.91077 -1.89815,7.19385 0,3.92618 -0.35169,6.73248 -0.84363,6.73248 -0.4916,0 -0.84361,-2.79617 -0.84361,-6.70117 0,-5.96841 0.20513,-6.84472 1.87508,-8.0144 1.62318,-1.13692 6.532266,-1.31322 36.565666,-1.31322 z m -33.947486,19.27475 c -6.2801,-0.055 -12.66817,0.31538 -14.41733,1.15339 l -2.30842,1.10725 -0.22574,21.90282 -0.22572,21.90447 c 1.56409,0.86738 2.97902,2.63273 4.64978,3.00869 0.01,-0.002 0.0294,-0.007 0.0346,-0.008 0.002,-3.3e-4 0.005,2.7e-4 0.007,0 0.71005,-0.0209 1.56891,-0.01 2.3282,-0.01 0.5335,-0.0875 1.08543,-0.15656 1.67734,-0.18783 1.23302,-0.0652 2.40497,-0.04 3.62823,0.15653 0.15387,0.0247 0.33343,0.0126 0.49432,0.0313 l 4.65968,0 c 10.511476,0 13.037016,-0.23607 14.125686,-1.32475 1.13694,-1.13694 1.3264,-4.43695 1.3264,-23.17978 l 0,-21.85504 -1.98219,-1.29839 c -1.31997,-0.86488 -7.49133,-1.34555 -13.771416,-1.40054 z m 13.222766,2.61984 10e-4,1.91792 c 0.001,1.81442 -0.27325,1.90319 -5.06173,1.63287 -3.66158,-0.20672 -5.06335,-0.61541 -5.06335,-1.47634 0,-1.66302 -7.253786,-1.64556 -8.185766,0.0197 -0.41044,0.73343 -2.34019,1.31543 -4.89365,1.47634 l -4.2148,0.26528 -0.22739,18.34874 -0.22738,18.34874 5.92182,0 c 5.35938,0 5.92182,0.16025 5.92182,1.68724 0,2.25214 3.36972,2.30825 3.956106,0.0659 0.35737,-1.36656 1.34487,-1.66469 6.28596,-1.89814 5.81913,-0.27494 5.86035,-0.26148 5.61371,1.83223 l -0.24881,2.10905 -13.166736,0.23233 c -10.4638,0.18418 -13.36734,-0.01 -14.14551,-0.9474 -0.69919,-0.84247 -0.91428,-7.18095 -0.753,-22.16646 l 0.22574,-20.9867 14.13064,-0.23068 z m -13.600076,1.83553 c 0.45872,0.006 0.88758,0.0673 1.17315,0.1829 0.571146,0.23109 -0.10083,0.40606 -1.49281,0.38885 -1.39197,-0.0172 -1.85887,-0.20627 -1.03805,-0.42016 0.41042,-0.10697 0.89898,-0.15725 1.35771,-0.15159 z m -5.83615,3.23278 c 1.76479,0.0224 3.98657,0.14036 6.78191,0.2109 l 9.701636,0.24387 0.22904,16.6615 0.22737,16.6615 -11.265286,0 c -6.19635,0 -11.51948,-0.25254 -11.8288,-0.56187 -0.30933,-0.30932 -0.56188,-7.70446 -0.56188,-16.43412 0,-15.17663 -0.93139,-16.87876 6.71601,-16.78178 z m 40.526726,31.24691 c -6.97404,0 -7.79381,0.16459 -8.1808,1.6444 -0.33497,1.2809 -1.29683,1.70065 -4.34992,1.89814 -3.36962,0.21797 -3.95969,0.53011 -4.19833,2.21451 -0.1527,1.07772 -0.0696,2.50133 0.18453,3.16357 0.37894,0.98749 3.46468,1.20191 17.15088,1.19129 9.17838,-0.007 17.19279,-0.33375 17.80994,-0.72499 0.63732,-0.40403 1.00177,-1.76489 0.84361,-3.1504 -0.26978,-2.3633 -0.4395,-2.44792 -5.4621,-2.68903 -4.31746,-0.20726 -5.25779,-0.52459 -5.617,-1.89815 -0.38849,-1.48565 -1.19922,-1.64934 -8.18081,-1.64934 z m 0,1.68724 c 5.56734,0 5.99831,0.13467 6.74896,2.10905 0.73286,1.92754 1.23872,2.10905 5.88393,2.10905 2.82598,0 5.08314,0.37456 5.08314,0.84362 0,0.53357 -6.04595,0.84362 -16.45059,0.84362 -10.40465,0 -16.4506,-0.31005 -16.4506,-0.84362 0,-0.46399 1.71827,-0.84362 3.8177,-0.84362 3.29542,0 3.92624,-0.28828 4.6185,-2.10905 0.75065,-1.97438 1.18162,-2.10905 6.74896,-2.10905 z m -46.738526,8.49387 c -0.002,6.6e-4 -0.005,9.3e-4 -0.007,0.002 0.005,0.003 0.008,0.004 0.0131,0.007 0.007,3.9e-4 -0.005,-0.006 -0.007,-0.008 z m 0.0643,0.0494 c 0.01,0.008 0.0108,0.0117 0.0247,0.0231 0.0134,0.0111 0.012,0.008 0.0264,0.0198 8.4e-4,-8e-5 0.002,8e-5 0.004,0 -5.9e-4,-8.2e-4 -0.002,-0.004 -0.004,-0.005 -0.007,-0.005 -0.0142,-0.0116 -0.0214,-0.0165 -0.0109,-0.005 -0.021,-0.0151 -0.0298,-0.0214 z m 6.06847,6.10142 c -0.0131,0.0153 -0.0264,0.0308 -0.0396,0.0461 0.0182,-0.0105 0.0363,-0.0208 0.0545,-0.0313 z"
       id="path7410"
       inkscape:connector-curvature="0"
       sodipodi:nodetypes="ssscccccccccsscccccccssssssscccssscccccccsssssssccccccccsccsssccsccsssccccssssccccscccccscccccccscscssssssssssssssssssssccccccccccccccc" />
    <path
       inkscape:connector-curvature="0"
       style="opacity:0.39300005;fill:url(#linearGradient7704);fill-opacity:1;fill-rule:evenodd;stroke:none;stroke-width:1px;stroke-linecap:butt;stroke-linejoin:miter;stroke-opacity:1"
       d="m 173.07508,359.62704 -0.51367,51.36523 -4.03125,2.78711 -48.4375,0 -3.09961,-1.29101 -2.55664,-0.125 -0.72852,10.89844 -1.39258,1.12304 -2.95312,0.39453 -24.624996,-0.39453 -2.89453,-2.19336 38.443356,38.56055 a 67.882248,67.882248 0 0 0 7.33203,0.42383 67.882248,67.882248 0 0 0 67.88281,-67.88281 67.882248,67.882248 0 0 0 -1.1875,-12.42774 l -21.23828,-21.23828 z"
       id="path7693" />
    <path
       inkscape:connector-curvature="0"
       style="opacity:0.41300001;fill:url(#linearGradient7727);fill-opacity:1;fill-rule:evenodd;stroke:none;stroke-width:1px;stroke-linecap:butt;stroke-linejoin:miter;stroke-opacity:1"
       d="m 6.807504,378.98446 c 0,0 -47.875,46.125 -47.625,47.375 0.25,1.25 -2.185547,-0.31445 -2.185547,-0.31445 l 31.033203,31.0332 A 67.882248,67.882248 0 0 0 31.948124,403.90048 L 6.807504,378.98446 Z"
       id="path7716" />
    <path
       inkscape:connector-curvature="0"
       style="opacity:0.38000039;fill:url(#linearGradient7739);fill-opacity:1;fill-rule:evenodd;stroke:none;stroke-width:1px;stroke-linecap:butt;stroke-linejoin:miter;stroke-opacity:1"
       d="m -178.30578,356.50204 -11.40234,28.72656 0.17773,0.70703 20.86524,0.25 -0.0937,1.8711 -36.41602,50.82422 24.82032,24.89062 a 67.882248,67.882248 0 0 0 52.69335,-56.92773 l -50.64453,-50.3418 z"
       id="path7731" />
    <path
       style="opacity:0.38600003;fill:url(#linearGradient7755);fill-opacity:1;fill-rule:evenodd;stroke:none;stroke-width:1px;stroke-linecap:butt;stroke-linejoin:miter;stroke-opacity:1"
       d="m -221.1925,403.60915 20.5,20.75 4.375,-20.375 z"
       id="path7747"
       inkscape:connector-curvature="0"
       sodipodi:nodetypes="cccc" />
    <g
       id="g7967">
      <circle
         r="67.882248"
         cy="413.84607"
         cx="807.86774"
         id="circle7844"
         style="opacity:1;fill:url(#linearGradient7848);fill-opacity:1;stroke:#000000;stroke-width:4;stroke-miterlimit:4;stroke-dasharray:none;stroke-opacity:1" />
      <path
         inkscape:connector-curvature="0"
         id="path7846"
         d="m 795.18207,465.64115 c -12.14958,-3.1312 -22.81172,-10.19163 -30.24572,-20.02862 -3.25602,-4.30852 -7.29669,-12.69637 -8.87867,-18.4309 -1.20784,-4.37827 -1.31878,-5.4855 -1.31749,-13.14748 10e-4,-7.53975 0.12568,-8.82344 1.25815,-12.9895 4.90255,-18.03417 17.7628,-31.94946 34.84551,-37.7042 17.13009,-5.77072 35.87935,-2.45024 50.00338,8.8555 12.54489,10.0417 19.55089,23.98183 20.10749,40.0084 0.2502,7.20508 -0.6431,12.914 -3.0857,19.71935 -4.3186,12.03203 -13.28886,22.49844 -24.58579,28.68638 -11.46176,6.27822 -25.87651,8.18161 -38.10116,5.03107 z m 25.35392,-2.04664 c 31.09683,-8.09178 47.34563,-42.70674 33.64333,-71.67092 -3.2462,-6.86197 -9.36873,-14.36896 -15.52969,-19.04145 -4.48911,-3.40456 -12.78435,-7.40407 -18.45109,-8.89612 -4.20823,-1.10801 -5.69716,-1.25879 -12.43034,-1.25879 -6.7585,0 -8.2063,0.14785 -12.43035,1.26901 -5.12001,1.359 -11.98348,4.43888 -16.40208,7.36018 -5.79258,3.82968 -12.64589,11.34548 -16.29952,17.87516 -1.81766,3.24848 -4.0342,9.20508 -5.1802,13.92096 -1.34286,5.5261 -1.09878,17.34869 0.48129,23.31196 5.17812,19.54232 20.97097,34.24101 40.82138,37.99323 5.72103,1.0814 15.84648,0.68006 21.77727,-0.86322 z m -18.98296,-4.40954 c -0.5259,-0.12083 -2.08568,-0.4482 -3.46616,-0.72741 -1.83087,-0.37031 -2.5094,-0.72477 -2.50783,-1.31005 0.003,-0.80869 10.68064,-32.17702 12.14221,-35.66809 0.44645,-1.06639 0.95643,-1.68601 1.18044,-1.43426 0.84909,0.95411 13.5164,36.66126 13.13594,37.02811 -1.09629,1.05707 -6.58822,1.97598 -12.83516,2.14757 -3.6813,0.10109 -7.12355,0.085 -7.64944,-0.0358 z m -17.47913,-6.29252 c -9.67665,-5.67859 -17.63729,-16.3763 -20.5556,-27.62319 -1.40159,-5.40157 -1.72499,-13.64139 -0.75359,-19.20043 0.85075,-4.86858 2.23732,-9.05999 2.9465,-8.90694 0.50453,0.10883 0.77071,0.81083 12.88345,33.97352 4.53993,12.42963 8.1076,22.69007 7.92813,22.80098 -0.17946,0.11096 -1.28147,-0.35885 -2.44889,-1.04394 z m 47.83785,-1.04028 c 0,-0.23606 3.41184,-10.29389 7.58185,-22.35072 8.33096,-24.08741 8.58619,-24.95869 9.10392,-31.07757 l 0.3579,-4.23049 0.7932,1.75909 c 0.4363,0.9675 1.3711,3.65675 2.0773,5.97612 1.1501,3.77749 1.2863,4.98948 1.3063,11.62745 0.019,6.27374 -0.1459,8.03374 -1.0744,11.47417 -2.6896,9.96635 -8.72042,19.19849 -16.22225,24.83334 -3.22832,2.42489 -3.92382,2.77737 -3.92382,1.98861 z m -43.87684,-35.30936 c -4.27955,-12.81807 -7.77558,-23.43923 -7.76897,-23.60257 0.006,-0.16333 1.13617,-0.44609 2.51008,-0.62835 1.37391,-0.18226 2.77234,-0.55902 3.10759,-0.83728 0.86437,-0.71734 0.75583,-2.64988 -0.17816,-3.17258 -0.44116,-0.24689 -4.01693,-0.3323 -8.12753,-0.19415 -4.17777,0.1404 -7.33696,0.0627 -7.3332,-0.18053 0.005,-0.23498 1.16685,-1.79192 2.5849,-3.4599 15.10427,-17.7664 40.86741,-21.45226 60.08702,-8.59649 2.33977,1.56505 4.25412,3.02776 4.25412,3.25047 0,0.22269 -0.97117,0.87505 -2.15816,1.44967 -3.19968,1.54892 -4.70492,4.33967 -4.45496,8.25958 0.15745,2.46939 0.59114,3.70026 2.5633,7.27508 4.8171,8.73168 5.80578,12.36012 5.02693,18.44895 -0.49883,3.89975 -6.68758,24.41316 -7.43908,24.65774 -0.43842,0.14269 -15.53375,-43.66632 -15.69554,-45.55094 -0.0575,-0.67016 0.47436,-0.96818 2.42456,-1.35853 3.11694,-0.62387 4.27552,-1.63912 3.50772,-3.07376 -0.29786,-0.55657 -0.80294,-1.02529 -1.12237,-1.04161 -3.91934,-0.20003 -26.20751,0.003 -26.59481,0.2428 -0.70861,0.43795 -0.65761,2.42624 0.0776,3.02506 0.32869,0.26771 1.76645,0.67055 3.195,0.8952 l 2.59739,0.40845 3.50756,9.56182 3.50755,9.5618 -4.67067,13.83749 c -2.56887,7.61062 -4.88582,13.9029 -5.14877,13.98283 -0.26295,0.08 -3.97954,-10.34219 -8.25912,-23.16025 z"
         style="fill:#000000;fill-opacity:1" />
      <path
         sodipodi:nodetypes="cssssccccccc"
         inkscape:connector-curvature="0"
         id="path7854"
         transform="translate(255.66963,584.81063)"
         d="m 594.91992,-202.58789 c 6.4078,8.55675 9.97529,18.75449 10.36524,29.98242 0.2502,7.20508 -0.64334,12.9134 -3.08594,19.71875 -4.3186,12.03203 -13.28901,22.49761 -24.58594,28.68555 -11.46176,6.27822 -25.87691,8.18179 -38.10156,5.03125 -9.86788,-2.54316 -18.75375,-7.67756 -25.72656,-14.78711 l -0.12305,0.11914 30.17773,30.17773 c 2.77125,0.36459 5.56237,0.55767 8.35743,0.57813 37.49077,3.1e-4 67.88312,-30.39204 67.88281,-67.88281 -0.0245,-2.30127 -0.1659,-4.59982 -0.42383,-6.88672 z"
         style="opacity:0.35200004;fill:url(#linearGradient7965);fill-opacity:1;fill-rule:evenodd;stroke:none;stroke-width:1px;stroke-linecap:butt;stroke-linejoin:miter;stroke-opacity:1" />
    </g>
  </g>
</svg>
